<?xml version="1.0" encoding="utf-8"?>
<!-- Generator: Adobe Illustrator 23.0.0, SVG Export Plug-In . SVG Version: 6.00 Build 0)  -->
<svg version="1.1" id="Capa_1" xmlns="http://www.w3.org/2000/svg" xmlns:xlink="http://www.w3.org/1999/xlink" x="0px" y="0px"
	 viewBox="0 0 512 512" style="enable-background:new 0 0 512 512;" xml:space="preserve">
<style type="text/css">
	.st0{fill:#FF4181;}
</style>
<path class="st0" d="M318.8,402.8h-30.9v46.4h30.9c12.8,0,23.2-10.4,23.2-23.2S331.6,402.8,318.8,402.8z"/>
<path class="st0" d="M426,170C426,76.1,349.9,0,256,0S86,76.1,86,170c0,86,63.9,157.1,146.8,168.4v64.4h-39.7
	c-12.8,0-23.2,10.4-23.2,23.2s10.4,23.2,23.2,23.2h39.7v39.7c0,12.8,10.4,23.2,23.2,23.2s23.2-10.4,23.2-23.2v-39.7h8.8
	c12.8,0,23.2-10.4,23.2-23.2s-10.4-23.2-23.2-23.2h-8.8v-64.4C362.1,327.1,426,256,426,170z M256,293.6
	c-68.3,0-123.6-55.3-123.6-123.6S187.7,46.4,256,46.4S379.6,101.7,379.6,170S324.3,293.6,256,293.6z"/>
</svg>
