<svg id="Capa_1" enable-background="new 0 0 512 512" height="512" viewBox="0 0 512 512" width="512" xmlns="http://www.w3.org/2000/svg" xmlns:xlink="http://www.w3.org/1999/xlink"><linearGradient id="SVGID_1_" gradientUnits="userSpaceOnUse" x1="256" x2="256" y1="512" y2="0"><stop offset="0" stop-color="#fd5900"/><stop offset="1" stop-color="#ffde00"/></linearGradient><g><g><path d="m508.993 156.991c-2.833-3.772-7.276-5.991-11.993-5.991h-92.076c-7.301-50.816-51.12-90-103.924-90s-96.623 39.184-103.924 90h-78.055l-19.599-138.107c-1.049-7.396-7.38-12.893-14.851-12.893h-69.571c-8.284 0-15 6.716-15 15s6.716 15 15 15h56.55c.017.118 41.756 294.183 42.242 297.607 2.457 17.197 10.82 32.978 23.598 44.684-10.004 8.26-16.39 20.753-16.39 34.709 0 20.723 14.085 38.209 33.181 43.414-2.044 5.137-3.181 10.73-3.181 16.586 0 24.813 20.187 45 45 45s45-20.187 45-45c0-5.258-.915-10.305-2.58-15.01h125.16c-1.665 4.705-2.58 9.751-2.58 15.01 0 24.813 20.187 45 45 45s45-20.187 45-45-20.187-45-45-45h-240c-8.271 0-15-6.729-15-15s6.729-15 15-15h224.742c33.309 0 62.963-22.368 72.098-54.339l48.567-167.483c1.313-4.531.419-9.416-2.414-13.187zm-102.993 295.009c8.271 0 15 6.729 15 15s-6.729 15-15 15-15-6.729-15-15 6.729-15 15-15zm-210 0c8.271 0 15 6.729 15 15s-6.729 15-15 15-15-6.729-15-15 6.729-15 15-15zm105-361c41.355 0 75 33.645 75 75s-33.645 75-75 75-75-33.645-75-75 33.645-75 75-75zm133.011 238.363c-5.49 19.216-23.283 32.637-43.269 32.637-8.566 0-190.353 0-202.705 0-22.25 0-41.401-16.61-44.546-38.623l-20.211-142.377h73.796c7.301 50.816 51.12 90 103.924 90s96.623-39.184 103.924-90h72.108zm-148.011-165.372v32.009c0 8.284 6.716 15 15 15s15-6.716 15-15v-60c0-5.532-3.045-10.615-7.922-13.225-4.877-2.611-10.795-2.324-15.398.744l-22.5 15c-6.893 4.596-8.756 13.909-4.161 20.801 4.416 6.624 13.188 8.602 19.981 4.671z" fill="url(#SVGID_1_)"/></g></g></svg>