<?xml version="1.0" encoding="utf-8"?>
<!-- Generator: Adobe Illustrator 23.0.0, SVG Export Plug-In . SVG Version: 6.00 Build 0)  -->
<svg version="1.1" xmlns="http://www.w3.org/2000/svg" xmlns:xlink="http://www.w3.org/1999/xlink" x="0px" y="0px"
	 viewBox="0 0 500 500" style="enable-background:new 0 0 500 500;" xml:space="preserve">
<style type="text/css">
	.st0{display:none;}
	.st1{display:inline;fill:#F1F1F2;}
	.st2{fill:#E6E7E8;}
	.st3{fill:#FFFFFF;}
	.st4{fill:#93B9D5;}
	.st5{fill:#175C6C;}
	.st6{fill:#F05757;}
	.st7{fill:#6E7C7D;}
	.st8{fill:#698793;}
	.st9{opacity:0.5;fill:#FFFFFF;}
	.st10{fill:#F1F1F2;}
</style>
<g id="BACKGROUND" class="st0">
	<rect class="st1" width="500" height="500"/>
</g>
<g id="OBJECT">
	<path class="st2" d="M369.96,212.89c0,67.01-54.32,121.33-121.33,121.33c-67.01,0-158.45-10.27-158.45-77.28
		c0-67.01,91.44-165.38,158.45-165.38C315.63,91.56,369.96,145.88,369.96,212.89z"/>
	<path class="st2" d="M352.61,337.59c-45.76,0-82.86-30.73-82.86-68.63c0-37.9,7.02-89.63,52.78-89.63
		c45.76,0,112.95,51.73,112.95,89.63C435.47,306.86,398.37,337.59,352.61,337.59z"/>
	<g>
		<path class="st3" d="M286.65,107.21c0-3.91-3.17-7.09-7.09-7.09c-1.03,0-2.01,0.23-2.89,0.62c0.41-1.09,0.63-2.26,0.63-3.49
			c0-5.5-4.46-9.96-9.96-9.96c-3.05,0-5.77,1.37-7.6,3.52c-0.44-5.09-4.71-9.08-9.92-9.08c-5.31,0-9.64,4.15-9.94,9.39
			c-1.04-0.61-2.25-0.96-3.55-0.96c-3.91,0-7.09,3.17-7.09,7.09c0,1.04,0.23,2.02,0.63,2.9c-0.21-0.02-0.41-0.03-0.63-0.03
			c-3.91,0-7.09,3.17-7.09,7.09c0,3.53,2.59,6.45,5.97,6.99l0,0.01h0.05c0.35,0.05,0.71,0.09,1.07,0.09c0.37,0,0.72-0.04,1.07-0.09
			h48.16c0.35,0.05,0.71,0.09,1.07,0.09c0.37,0,0.72-0.04,1.07-0.09h0.05l0-0.01C284.07,113.66,286.65,110.74,286.65,107.21z"/>
		<path class="st4" d="M282.78,110.93h-0.05c-0.35,0.05-0.71,0.09-1.07,0.09c-0.37,0-0.72-0.04-1.07-0.09h-48.16
			c-0.35,0.05-0.71,0.09-1.07,0.09c-0.36,0-0.72-0.04-1.07-0.09h-0.05l0-0.01c-3.38-0.54-5.97-3.46-5.97-6.99
			c0-0.65,0.09-1.27,0.26-1.87c-1.37,1.29-2.23,3.12-2.23,5.15c0,3.53,2.59,6.45,5.97,6.99l0,0.01h0.05
			c0.35,0.05,0.71,0.09,1.07,0.09c0.37,0,0.72-0.04,1.07-0.09h48.16c0.35,0.05,0.71,0.09,1.07,0.09c0.37,0,0.72-0.04,1.07-0.09h0.05
			l0-0.01c2.76-0.44,4.99-2.47,5.72-5.13C285.51,110.02,284.22,110.69,282.78,110.93L282.78,110.93z"/>
		<path class="st5" d="M279.57,115.59c-0.37,0-0.74-0.03-1.17-0.09h-47.98c-0.88,0.12-1.51,0.12-2.41-0.01
			c-0.03,0-0.05-0.01-0.08-0.01v0c-4.09-0.65-7.06-4.13-7.06-8.27c0-4.24,3.16-7.75,7.25-8.31c-0.11-0.54-0.16-1.09-0.16-1.65
			c0-4.62,3.76-8.38,8.38-8.38c0.85,0,1.69,0.13,2.5,0.39c1.12-5.06,5.64-8.81,10.99-8.81c5.03,0,9.29,3.23,10.73,7.83
			c1.94-1.47,4.31-2.28,6.78-2.28c6.21,0,11.25,5.05,11.25,11.25c0,0.55-0.04,1.1-0.12,1.64c0.36-0.05,0.72-0.07,1.08-0.07
			c4.62,0,8.38,3.76,8.38,8.38c0,4.09-2.89,7.53-6.91,8.24c-0.1,0.03-0.2,0.05-0.31,0.05C280.31,115.56,279.93,115.59,279.57,115.59
			z M230.33,112.91h48.16c0.06,0,0.13,0,0.19,0.01c0.68,0.1,1.08,0.1,1.75,0c0.01,0,0.03-0.01,0.04-0.01
			c2.82-0.45,4.87-2.85,4.87-5.71c0-3.19-2.6-5.79-5.79-5.79c-0.81,0-1.61,0.17-2.36,0.51c-0.48,0.22-1.04,0.12-1.42-0.24
			c-0.38-0.36-0.51-0.91-0.33-1.4c0.36-0.97,0.55-2,0.55-3.04c0-4.77-3.88-8.66-8.66-8.66c-2.55,0-4.96,1.12-6.61,3.07
			c-0.34,0.4-0.88,0.56-1.38,0.4c-0.5-0.16-0.85-0.6-0.9-1.12c-0.39-4.43-4.17-7.9-8.63-7.9c-4.59,0-8.38,3.58-8.64,8.16
			c-0.03,0.45-0.28,0.85-0.68,1.07c-0.4,0.21-0.88,0.21-1.27-0.02c-0.88-0.51-1.89-0.78-2.9-0.78c-3.19,0-5.79,2.6-5.79,5.79
			c0,0.82,0.17,1.61,0.51,2.37c0.19,0.42,0.14,0.91-0.13,1.28c-0.27,0.38-0.71,0.58-1.17,0.54c-0.17-0.02-0.34-0.03-0.51-0.03
			c-3.19,0-5.79,2.6-5.79,5.79c0,2.86,2.05,5.26,4.88,5.71c0.01,0,0.02,0,0.03,0c0,0,0.01,0,0.01,0c0.68,0.1,1.08,0.1,1.76,0
			C230.2,112.91,230.27,112.91,230.33,112.91z"/>
	</g>
	<g>
		<path class="st3" d="M174.09,179.09c0-3.91-3.17-7.09-7.09-7.09c-1.03,0-2.01,0.23-2.89,0.62c0.41-1.09,0.63-2.26,0.63-3.49
			c0-5.5-4.46-9.96-9.96-9.96c-3.05,0-5.77,1.37-7.6,3.52c-0.44-5.09-4.71-9.08-9.92-9.08c-5.31,0-9.64,4.15-9.94,9.39
			c-1.04-0.61-2.25-0.96-3.55-0.96c-3.91,0-7.09,3.17-7.09,7.09c0,1.04,0.23,2.02,0.63,2.9c-0.21-0.02-0.41-0.03-0.63-0.03
			c-3.91,0-7.09,3.17-7.09,7.09c0,3.53,2.59,6.45,5.97,6.99l0,0.01h0.05c0.35,0.05,0.71,0.09,1.07,0.09c0.37,0,0.72-0.04,1.07-0.09
			h48.16c0.35,0.05,0.71,0.09,1.07,0.09c0.37,0,0.72-0.04,1.07-0.09h0.05l0-0.01C171.5,185.54,174.09,182.62,174.09,179.09z"/>
		<path class="st4" d="M170.22,182.8h-0.05c-0.35,0.05-0.71,0.09-1.07,0.09c-0.37,0-0.72-0.04-1.07-0.09h-48.16
			c-0.35,0.05-0.71,0.09-1.07,0.09c-0.36,0-0.72-0.04-1.07-0.09h-0.05l0-0.01c-3.38-0.54-5.97-3.46-5.97-6.99
			c0-0.65,0.09-1.27,0.26-1.87c-1.37,1.29-2.23,3.12-2.23,5.15c0,3.53,2.59,6.45,5.97,6.99l0,0.01h0.05
			c0.35,0.05,0.71,0.09,1.07,0.09c0.37,0,0.72-0.04,1.07-0.09h48.16c0.35,0.05,0.71,0.09,1.07,0.09c0.36,0,0.72-0.04,1.07-0.09h0.05
			l0-0.01c2.76-0.44,4.99-2.47,5.72-5.13C172.95,181.9,171.66,182.57,170.22,182.8L170.22,182.8z"/>
		<path class="st5" d="M167,187.47c-0.37,0-0.74-0.03-1.17-0.09h-47.98c-0.88,0.13-1.51,0.12-2.41-0.01c-0.03,0-0.05-0.01-0.08-0.01
			l0,0c-4.09-0.65-7.06-4.13-7.06-8.27c0-4.24,3.16-7.75,7.25-8.31c-0.11-0.54-0.16-1.09-0.16-1.65c0-4.62,3.76-8.38,8.38-8.38
			c0.85,0,1.69,0.13,2.5,0.39c1.12-5.06,5.64-8.81,10.99-8.81c5.03,0,9.29,3.23,10.73,7.83c1.94-1.47,4.31-2.28,6.78-2.28
			c6.21,0,11.25,5.05,11.25,11.25c0,0.55-0.04,1.1-0.12,1.64c0.36-0.05,0.72-0.07,1.08-0.07c4.62,0,8.38,3.76,8.38,8.38
			c0,4.09-2.89,7.53-6.9,8.24c-0.1,0.03-0.2,0.05-0.31,0.05C167.75,187.44,167.37,187.47,167,187.47z M117.77,184.79h48.16
			c0.06,0,0.13,0.01,0.19,0.01c0.68,0.1,1.08,0.1,1.75,0c0.01,0,0.03-0.01,0.04-0.01c2.82-0.45,4.87-2.85,4.87-5.71
			c0-3.19-2.6-5.79-5.79-5.79c-0.81,0-1.61,0.17-2.36,0.51c-0.48,0.22-1.04,0.12-1.42-0.24c-0.38-0.36-0.51-0.91-0.33-1.4
			c0.36-0.97,0.55-1.99,0.55-3.04c0-4.77-3.88-8.66-8.66-8.66c-2.55,0-4.96,1.12-6.61,3.07c-0.34,0.4-0.88,0.56-1.38,0.4
			c-0.5-0.16-0.85-0.6-0.9-1.12c-0.39-4.43-4.17-7.9-8.62-7.9c-4.59,0-8.39,3.59-8.64,8.16c-0.03,0.45-0.28,0.85-0.68,1.07
			c-0.4,0.21-0.88,0.21-1.27-0.02c-0.88-0.51-1.89-0.78-2.9-0.78c-3.19,0-5.79,2.6-5.79,5.79c0,0.82,0.17,1.62,0.51,2.37
			c0.19,0.42,0.14,0.91-0.13,1.28c-0.27,0.38-0.71,0.58-1.17,0.54c-0.17-0.01-0.34-0.03-0.51-0.03c-3.19,0-5.79,2.6-5.79,5.79
			c0,2.86,2.05,5.26,4.87,5.71c0.01,0,0.02,0,0.03,0c0,0,0.01,0,0.01,0c0.68,0.1,1.08,0.1,1.76,0
			C117.64,184.79,117.71,184.79,117.77,184.79z"/>
	</g>
	<g>
		<path class="st3" d="M387.03,162.81c0-3.91-3.17-7.09-7.09-7.09c-1.03,0-2.01,0.23-2.89,0.62c0.41-1.09,0.63-2.26,0.63-3.49
			c0-5.5-4.46-9.96-9.96-9.96c-3.05,0-5.77,1.37-7.6,3.52c-0.44-5.09-4.71-9.08-9.92-9.08c-5.31,0-9.64,4.15-9.94,9.39
			c-1.04-0.61-2.25-0.96-3.55-0.96c-3.91,0-7.09,3.17-7.09,7.09c0,1.04,0.23,2.02,0.63,2.9c-0.21-0.02-0.42-0.03-0.63-0.03
			c-3.91,0-7.08,3.17-7.08,7.09c0,3.53,2.59,6.45,5.97,6.99l0,0.01h0.05c0.35,0.05,0.71,0.09,1.07,0.09c0.37,0,0.72-0.04,1.07-0.09
			h48.16c0.35,0.05,0.71,0.09,1.07,0.09c0.37,0,0.72-0.04,1.07-0.09h0.05l0-0.01C384.44,169.26,387.03,166.34,387.03,162.81z"/>
		<path class="st4" d="M383.16,166.53h-0.05c-0.35,0.05-0.71,0.09-1.07,0.09c-0.37,0-0.72-0.04-1.07-0.09H332.8
			c-0.35,0.05-0.71,0.09-1.07,0.09c-0.36,0-0.72-0.04-1.07-0.09h-0.05l0-0.01c-3.38-0.54-5.97-3.46-5.97-6.99
			c0-0.65,0.09-1.27,0.26-1.87c-1.37,1.29-2.23,3.12-2.23,5.15c0,3.53,2.59,6.45,5.97,6.99l0,0.01h0.05
			c0.35,0.05,0.71,0.09,1.07,0.09c0.37,0,0.72-0.04,1.07-0.09h48.16c0.35,0.05,0.71,0.09,1.07,0.09c0.37,0,0.72-0.04,1.07-0.09h0.05
			l0-0.01c2.76-0.44,4.99-2.47,5.72-5.13C385.89,165.62,384.59,166.29,383.16,166.53L383.16,166.53z"/>
		<path class="st5" d="M379.94,171.19c-0.37,0-0.74-0.03-1.17-0.09H330.8c-0.88,0.12-1.51,0.12-2.41-0.01
			c-0.03,0-0.05-0.01-0.08-0.01v0c-4.09-0.65-7.06-4.13-7.06-8.27c0-4.24,3.16-7.75,7.25-8.31c-0.11-0.54-0.16-1.09-0.16-1.65
			c0-4.62,3.76-8.38,8.38-8.38c0.85,0,1.69,0.13,2.5,0.38c1.12-5.06,5.64-8.81,10.99-8.81c5.03,0,9.29,3.23,10.73,7.83
			c1.94-1.47,4.31-2.28,6.79-2.28c6.21,0,11.25,5.05,11.25,11.25c0,0.55-0.04,1.1-0.12,1.64c0.36-0.05,0.72-0.07,1.08-0.07
			c4.62,0,8.38,3.76,8.38,8.38c0,4.09-2.89,7.53-6.9,8.24c-0.1,0.03-0.2,0.05-0.31,0.05C380.68,171.16,380.3,171.19,379.94,171.19z
			 M330.7,168.51h48.16c0.06,0,0.13,0,0.19,0.01c0.68,0.1,1.08,0.1,1.75,0c0.01,0,0.03-0.01,0.04-0.01
			c2.82-0.45,4.87-2.85,4.87-5.71c0-3.19-2.6-5.79-5.79-5.79c-0.81,0-1.61,0.17-2.36,0.51c-0.48,0.22-1.04,0.12-1.42-0.24
			c-0.38-0.36-0.51-0.91-0.33-1.4c0.36-0.97,0.55-2,0.55-3.04c0-4.77-3.88-8.66-8.66-8.66c-2.55,0-4.96,1.12-6.61,3.07
			c-0.34,0.4-0.88,0.56-1.38,0.4c-0.5-0.16-0.85-0.6-0.9-1.12c-0.39-4.43-4.17-7.9-8.62-7.9c-4.59,0-8.39,3.59-8.64,8.16
			c-0.03,0.45-0.28,0.85-0.68,1.07c-0.4,0.21-0.88,0.21-1.27-0.02c-0.88-0.51-1.89-0.78-2.9-0.78c-3.19,0-5.79,2.6-5.79,5.79
			c0,0.82,0.17,1.61,0.51,2.37c0.19,0.42,0.14,0.91-0.13,1.28c-0.27,0.38-0.71,0.58-1.17,0.54c-0.17-0.01-0.34-0.03-0.51-0.03
			c-3.19,0-5.79,2.6-5.79,5.79c0,2.86,2.05,5.26,4.88,5.71c0.01,0,0.02,0,0.03,0c0,0,0.01,0,0.01,0c0.68,0.1,1.08,0.1,1.76,0
			C330.58,168.51,330.64,168.51,330.7,168.51z"/>
	</g>
	<g>
		<g>
			<path class="st6" d="M220.51,203.77l2.77-14.64h-27.85l1.83-9.3l29.77-36.63h18.27l-6.65,35.22h7.47l-1.99,10.71h-7.47
				l-2.77,14.64H220.51z M225.27,178.43l2.95-13.65c0.91-3.85,2.03-8.04,2.89-11.8l-0.35-0.02c-2.78,4.17-5.32,8.04-8.51,12.35
				l-10.5,12.93l-0.07,0.19H225.27z"/>
			<path class="st6" d="M300.91,163.66c0,19.34-10.02,41.23-29.75,41.23c-13.16,0-18.97-9.4-18.97-22.82
				c0-18.63,10.16-39.98,29.96-39.98C295.46,142.08,300.91,151.64,300.91,163.66z M266.06,182.33c0,4.36,0.59,11.65,6.7,11.65
				c9.89,0,14.19-21.18,14.19-29.57c0-4.08-0.47-11.42-6.53-11.42C270.97,152.99,266.06,173.1,266.06,182.33z"/>
			<path class="st6" d="M328.23,203.77l2.77-14.64h-27.85l1.83-9.3l29.77-36.63h18.27l-6.65,35.22h7.47l-2,10.71h-7.47l-2.77,14.64
				H328.23z M332.99,178.43l2.96-13.65c0.91-3.85,2.03-8.04,2.89-11.8l-0.35-0.02c-2.79,4.17-5.32,8.04-8.51,12.35l-10.5,12.93
				l-0.07,0.19H332.99z"/>
		</g>
	</g>
	<g>
		<g>
			<path class="st7" d="M199.8,232.29l2.04-10.69c0.2-1.06,0.39-2.1,0.53-3.16h0.92l-0.37,2.24h0.04c1.04-1.55,2.56-2.48,4.15-2.48
				c2.42,0,3.36,1.95,3.36,3.68c0,3.66-2.97,6.57-6.21,6.57c-1.47,0-2.22-0.28-2.67-0.49h-0.04l-0.79,4.32H199.8z M201.75,227.04
				c0.57,0.41,1.47,0.63,2.58,0.63c2.5,0,5.13-2.26,5.13-5.72c0-1.2-0.61-2.93-2.65-2.93c-1.57,0-3.87,1.61-4.54,5.19L201.75,227.04
				z"/>
			<path class="st7" d="M219.34,228.22c-0.04-0.61,0.1-1.87,0.31-3.2h-0.04c-1.18,2.42-2.79,3.44-4.6,3.44
				c-1.97,0-3.07-1.57-3.07-3.28c0-3.64,3.05-6.98,7.08-6.98c0.9,0,1.89,0.12,2.59,0.31l-0.92,4.89c-0.41,2.16-0.49,3.87-0.43,4.82
				H219.34z M220.52,219.23c-0.26-0.1-0.75-0.2-1.65-0.2c-3.09,0-5.96,2.54-5.96,6.07c0,1.08,0.41,2.58,2.3,2.58
				c1.93,0,4.17-2.32,4.72-5.27L220.52,219.23z"/>
			<path class="st7" d="M223,230.95c0.69,0.47,1.61,0.79,2.95,0.79c1.87,0,3.58-0.9,4.36-4.32l0.43-1.89h-0.06
				c-0.92,1.69-2.48,2.69-4.23,2.69c-2.3,0-3.26-1.99-3.26-3.48c0-3.6,2.89-6.53,6.39-6.53c1.12,0,2.56,0.41,3.24,0.77l-1.49,7.94
				c-0.43,2.24-1.04,3.58-2.08,4.5s-2.48,1.12-3.52,1.12c-1.24,0-2.46-0.33-3.09-0.81L223,230.95z M231.75,219.53
				c-0.41-0.2-1.28-0.51-2.3-0.51c-3.07,0-5.29,2.65-5.29,5.58c0,1.06,0.41,2.83,2.58,2.83c1.93,0,3.95-2.34,4.38-4.58
				L231.75,219.53z"/>
			<path class="st7" d="M241.48,227.65c-0.45,0.28-1.59,0.81-3.3,0.81c-2.69,0-3.75-1.99-3.75-3.97c0-3.05,2.46-6.29,5.48-6.29
				c1.97,0,2.83,1.16,2.83,2.34c0,2.77-3.56,3.13-7.25,3.05c-0.16,0.59-0.08,1.71,0.18,2.36c0.47,1.14,1.42,1.69,2.63,1.69
				c1.4,0,2.36-0.45,2.89-0.75L241.48,227.65z M239.75,219.02c-2.04,0-3.64,2.08-4.13,3.79c3.28,0.06,6.15-0.26,6.15-2.18
				C241.76,219.55,240.89,219.02,239.75,219.02z"/>
			<path class="st7" d="M247.8,228.22l1.4-7.41c0.16-0.79,0.29-1.57,0.39-2.36h0.9l-0.33,2.24h0.04c0.85-1.47,2.42-2.48,4.13-2.48
				c0.81,0,2.75,0.33,2.75,3.03c0,0.39-0.08,1-0.18,1.57l-1.04,5.41h-0.96l1.06-5.56c0.06-0.37,0.14-0.88,0.14-1.28
				c0-1.32-0.53-2.34-2.18-2.34c-1.44,0-3.79,1.55-4.29,4.38l-0.88,4.8H247.8z"/>
			<path class="st7" d="M268.99,222.65c0,2.87-2.28,5.82-5.58,5.82c-2.77,0-4.15-2.14-4.15-4.23c0-3.44,2.5-6.02,5.54-6.02
				C267.77,218.21,268.99,220.45,268.99,222.65z M260.24,224.19c0,2.04,1.4,3.48,3.28,3.48c2.26,0,4.5-2.06,4.5-5.07
				c0-1.3-0.75-3.6-3.26-3.6C262.21,219,260.24,221.28,260.24,224.19z"/>
			<path class="st7" d="M274.32,215.89l-0.49,2.56h2.71l-0.16,0.77h-2.71l-1.02,5.46c-0.12,0.65-0.22,1.14-0.22,1.85
				c0,0.73,0.39,1.14,1.1,1.14c0.35,0,0.65-0.04,0.88-0.12l0.1,0.75c-0.24,0.1-0.67,0.16-1.14,0.16c-1.51,0-1.91-1.06-1.91-1.95
				c0-0.67,0.1-1.32,0.22-1.91l1.04-5.37h-1.59l0.16-0.77h1.59l0.43-2.32L274.32,215.89z"/>
			<path class="st7" d="M281.07,228.22l1.71-9h-1.38l0.16-0.77h1.38l0.08-0.47c0.29-1.63,0.81-2.95,1.67-3.75
				c0.53-0.49,1.3-0.83,2.1-0.83c0.77,0,1.18,0.16,1.38,0.31l-0.31,0.77c-0.29-0.16-0.71-0.24-1.12-0.24
				c-1.69,0-2.38,1.61-2.77,3.77l-0.08,0.45h2.5l-0.16,0.77h-2.5l-1.71,9H281.07z"/>
			<path class="st7" d="M296.17,222.65c0,2.87-2.28,5.82-5.58,5.82c-2.77,0-4.15-2.14-4.15-4.23c0-3.44,2.5-6.02,5.54-6.02
				C294.95,218.21,296.17,220.45,296.17,222.65z M287.42,224.19c0,2.04,1.4,3.48,3.28,3.48c2.26,0,4.5-2.06,4.5-5.07
				c0-1.3-0.75-3.6-3.26-3.6C289.39,219,287.42,221.28,287.42,224.19z"/>
			<path class="st7" d="M307.3,218.45l-1.42,7.41c-0.14,0.79-0.29,1.57-0.37,2.36h-0.9l0.35-2.12h-0.04
				c-0.79,1.26-2.28,2.36-3.79,2.36c-1.06,0-2.99-0.26-2.99-3.24c0-0.41,0.06-0.94,0.2-1.65l1-5.13h0.96l-1.02,5.27
				c-0.12,0.63-0.18,1.1-0.18,1.53c0,1.44,0.59,2.36,2.24,2.36c1.45,0,3.56-1.57,4.01-3.95l1-5.21H307.3z"/>
			<path class="st7" d="M309.03,228.22l1.4-7.41c0.16-0.79,0.29-1.57,0.39-2.36h0.9l-0.33,2.24h0.04c0.85-1.47,2.42-2.48,4.13-2.48
				c0.81,0,2.75,0.33,2.75,3.03c0,0.39-0.08,1-0.18,1.57l-1.04,5.41h-0.96l1.06-5.56c0.06-0.37,0.14-0.88,0.14-1.28
				c0-1.32-0.53-2.34-2.18-2.34c-1.44,0-3.79,1.55-4.29,4.38l-0.88,4.8H309.03z"/>
			<path class="st7" d="M331.03,213.65l-2.34,12.21c-0.14,0.79-0.29,1.57-0.37,2.36h-0.88l0.41-2.34h-0.04
				c-1.08,1.59-2.44,2.58-4.19,2.58c-2.32,0-3.2-1.89-3.2-3.68c0-3.6,2.99-6.57,6.49-6.57c0.85,0,1.77,0.16,2.26,0.39l0.9-4.95
				H331.03z M329.02,219.45c-0.47-0.22-1.2-0.43-2.16-0.43c-2.93,0-5.46,2.4-5.46,5.72c0,1.14,0.35,2.93,2.46,2.93
				c1.83,0,3.97-2.14,4.42-4.52L329.02,219.45z"/>
		</g>
	</g>
	<g>
		<g>
			<g>
				<rect x="153.53" y="252.79" class="st3" width="13.73" height="133.93"/>
				<path class="st8" d="M160.39,235.32c-4.17,0-7.55,3.38-7.55,7.54v9.92h15.09v-9.92C167.94,238.7,164.56,235.32,160.39,235.32z"
					/>
				<path class="st6" d="M170.35,225.36c0,5.5-4.46,9.96-9.96,9.96c-5.5,0-9.96-4.46-9.96-9.96c0-5.5,4.46-9.96,9.96-9.96
					C165.9,215.4,170.35,219.86,170.35,225.36z"/>
				<path class="st9" d="M158.54,218.52c5.5,0,9.96,4.46,9.96,9.96c0,0.88-0.13,1.73-0.34,2.54c1.27-1.67,2.02-3.74,2.02-6
					c0-5.5-4.46-9.96-9.96-9.96c-4.62,0-8.5,3.15-9.62,7.42C152.42,220.08,155.29,218.52,158.54,218.52z"/>
				<path class="st3" d="M164.06,225.36c0,2.03-1.64,3.67-3.67,3.67c-2.03,0-3.67-1.64-3.67-3.67c0-2.03,1.64-3.67,3.67-3.67
					C162.42,221.69,164.06,223.33,164.06,225.36z"/>
				<path class="st5" d="M167.94,254.09h-15.09c-0.72,0-1.3-0.58-1.3-1.3v-9.92c0-4.87,3.97-8.84,8.84-8.84
					c4.88,0,8.84,3.97,8.84,8.84v9.92C169.24,253.51,168.65,254.09,167.94,254.09z M154.14,251.5h12.5v-8.63
					c0-3.44-2.8-6.25-6.25-6.25s-6.25,2.8-6.25,6.25V251.5z"/>
				<path class="st5" d="M160.39,236.62c-6.21,0-11.26-5.05-11.26-11.26c0-6.21,5.05-11.26,11.26-11.26
					c6.21,0,11.26,5.05,11.26,11.26C171.65,231.57,166.6,236.62,160.39,236.62z M160.39,216.7c-4.78,0-8.66,3.89-8.66,8.66
					c0,4.78,3.89,8.67,8.66,8.67c4.78,0,8.67-3.89,8.67-8.67C169.06,220.58,165.17,216.7,160.39,216.7z"/>
				<rect x="153.53" y="299.41" class="st4" width="13.73" height="9.5"/>
				<path class="st5" d="M167.26,388.54h-13.73c-0.72,0-1.3-0.58-1.3-1.3V245.23c0-0.72,0.58-1.3,1.3-1.3h13.73
					c0.72,0,1.3,0.58,1.3,1.3v142.01C168.55,387.96,167.97,388.54,167.26,388.54z M154.83,385.95h11.13V246.53h-11.13V385.95z"/>
			</g>
			<g>
				<rect x="332.35" y="252.79" class="st3" width="13.73" height="133.93"/>
				<path class="st8" d="M339.22,235.32c-4.17,0-7.55,3.38-7.55,7.54v9.92h15.09v-9.92C346.76,238.7,343.39,235.32,339.22,235.32z"
					/>
				<path class="st6" d="M349.18,225.36c0,5.5-4.46,9.96-9.96,9.96c-5.5,0-9.96-4.46-9.96-9.96c0-5.5,4.46-9.96,9.96-9.96
					C344.72,215.4,349.18,219.86,349.18,225.36z"/>
				<path class="st9" d="M337.36,218.52c5.5,0,9.96,4.46,9.96,9.96c0,0.88-0.13,1.73-0.34,2.54c1.26-1.67,2.02-3.74,2.02-6
					c0-5.5-4.46-9.96-9.96-9.96c-4.62,0-8.5,3.15-9.62,7.42C331.25,220.08,334.12,218.52,337.36,218.52z"/>
				<path class="st3" d="M342.89,225.36c0,2.03-1.64,3.67-3.67,3.67c-2.03,0-3.67-1.64-3.67-3.67c0-2.03,1.64-3.67,3.67-3.67
					C341.25,221.69,342.89,223.33,342.89,225.36z"/>
				<path class="st5" d="M346.76,254.09h-15.09c-0.72,0-1.3-0.58-1.3-1.3v-9.92c0-4.87,3.97-8.84,8.84-8.84
					c4.88,0,8.84,3.97,8.84,8.84v9.92C348.06,253.51,347.48,254.09,346.76,254.09z M332.97,251.5h12.5v-8.63
					c0-3.44-2.8-6.25-6.25-6.25c-3.45,0-6.25,2.8-6.25,6.25V251.5z"/>
				<path class="st5" d="M339.22,236.62c-6.21,0-11.26-5.05-11.26-11.26c0-6.21,5.05-11.26,11.26-11.26
					c6.21,0,11.26,5.05,11.26,11.26C350.48,231.57,345.43,236.62,339.22,236.62z M339.22,216.7c-4.78,0-8.67,3.89-8.67,8.66
					c0,4.78,3.89,8.67,8.67,8.67c4.78,0,8.67-3.89,8.67-8.67C347.88,220.58,344,216.7,339.22,216.7z"/>
				<rect x="332.35" y="299.41" class="st4" width="13.73" height="9.5"/>
				<path class="st5" d="M346.08,388.54h-13.73c-0.72,0-1.3-0.58-1.3-1.3V245.23c0-0.72,0.58-1.3,1.3-1.3h13.73
					c0.72,0,1.3,0.58,1.3,1.3v142.01C347.38,387.96,346.8,388.54,346.08,388.54z M333.65,385.95h11.13V246.53h-11.13V385.95z"/>
			</g>
		</g>
		<rect x="141.85" y="351.04" class="st3" width="215.91" height="19.02"/>
		<rect x="144.36" y="245.23" class="st3" width="210.89" height="53.17"/>
		<g>
			<polygon class="st6" points="187.33,245.23 141.85,290.72 141.85,298.41 157.91,298.41 211.09,245.23 			"/>
			<polygon class="st6" points="141.85,253.22 141.85,276.97 173.59,245.23 149.83,245.23 			"/>
			<polygon class="st6" points="285.72,245.23 261.97,245.23 208.79,298.41 232.55,298.41 			"/>
			<polygon class="st6" points="248.22,245.23 224.46,245.23 171.29,298.41 195.05,298.41 			"/>
			<polygon class="st6" points="323.03,245.23 299.28,245.23 246.11,298.41 269.86,298.41 			"/>
			<polygon class="st6" points="357.76,285.14 357.76,261.39 320.74,298.41 344.49,298.41 			"/>
			<polygon class="st6" points="357.76,247.64 357.76,245.23 336.41,245.23 283.24,298.41 306.99,298.41 			"/>
		</g>
		<rect x="141.85" y="245.23" class="st9" width="215.91" height="5.51"/>
		<path class="st5" d="M357.76,299.71H141.85c-0.72,0-1.3-0.58-1.3-1.3v-53.17c0-0.72,0.58-1.3,1.3-1.3h215.91
			c0.72,0,1.3,0.58,1.3,1.3v53.17C359.06,299.12,358.48,299.71,357.76,299.71z M143.15,297.11h213.31v-50.58H143.15V297.11z"/>
		<g>
			<polygon class="st6" points="152.87,351.04 141.85,362.06 141.85,370.06 150.17,370.06 169.19,351.04 			"/>
			<polygon class="st6" points="196.82,351.04 180.5,351.04 161.48,370.06 177.8,370.06 			"/>
			<polygon class="st6" points="223.75,351.04 207.43,351.04 188.41,370.06 204.73,370.06 			"/>
			<polygon class="st6" points="251.38,351.04 235.06,351.04 216.04,370.06 232.36,370.06 			"/>
			<polygon class="st6" points="280.74,351.04 264.42,351.04 245.4,370.06 261.72,370.06 			"/>
			<polygon class="st6" points="308.37,351.04 292.05,351.04 273.03,370.06 289.35,370.06 			"/>
			<polygon class="st6" points="336.95,351.04 320.63,351.04 301.61,370.06 317.93,370.06 			"/>
			<polygon class="st6" points="357.76,357.86 357.76,351.04 348.26,351.04 329.24,370.06 345.56,370.06 			"/>
		</g>
		<path class="st5" d="M357.76,371.36H141.85c-0.72,0-1.3-0.58-1.3-1.3v-19.02c0-0.72,0.58-1.3,1.3-1.3h215.91
			c0.72,0,1.3,0.58,1.3,1.3v19.02C359.06,370.77,358.48,371.36,357.76,371.36z M143.15,368.76h213.31v-16.43H143.15V368.76z"/>
	</g>
	<path class="st5" d="M400.83,388.54H98.78c-0.72,0-1.3-0.58-1.3-1.3s0.58-1.3,1.3-1.3h302.05c0.71,0,1.3,0.58,1.3,1.3
		S401.54,388.54,400.83,388.54z"/>
	<g>
		<polygon class="st6" points="414.58,377.93 397.16,305.94 394.81,305.94 390.47,305.94 388.12,305.94 370.69,377.93 
			360.18,377.93 360.18,387.25 425.1,387.25 425.1,377.93 		"/>
		<polygon class="st10" points="406.91,345.57 378.53,345.57 380.54,337.26 404.74,337.26 		"/>
		<rect x="374.23" y="354.93" class="st10" width="35.26" height="8.31"/>
		<polygon class="st9" points="409.49,377.93 392.72,305.94 396.62,305.94 414.58,377.93 		"/>
		<rect x="359.64" y="377.93" class="st9" width="64.92" height="4.57"/>
		<path class="st5" d="M424.56,388.54h-64.92c-0.72,0-1.3-0.58-1.3-1.3v-9.32c0-0.72,0.58-1.3,1.3-1.3h9.49l17.18-71
			c0.14-0.58,0.66-0.99,1.26-0.99h9.04c0.6,0,1.12,0.41,1.26,0.99l17.18,71h9.5c0.71,0,1.3,0.58,1.3,1.3v9.32
			C425.86,387.96,425.27,388.54,424.56,388.54z M360.94,385.95h62.32v-6.72h-9.22c-0.6,0-1.12-0.41-1.26-0.99l-17.19-71h-7
			l-17.19,71c-0.14,0.58-0.66,0.99-1.26,0.99h-9.22V385.95z"/>
		<path class="st5" d="M397.61,379.23h-26.92c-0.72,0-1.3-0.58-1.3-1.3c0-0.72,0.58-1.3,1.3-1.3h26.92c0.72,0,1.3,0.58,1.3,1.3
			C398.91,378.65,398.33,379.23,397.61,379.23z"/>
		<path class="st5" d="M420.53,379.23h-15.35c-0.72,0-1.3-0.58-1.3-1.3c0-0.72,0.58-1.3,1.3-1.3h15.35c0.71,0,1.3,0.58,1.3,1.3
			C421.82,378.65,421.24,379.23,420.53,379.23z"/>
	</g>
	<g>
		<polygon class="st6" points="129.99,377.93 112.57,305.94 110.21,305.94 105.88,305.94 103.53,305.94 86.1,377.93 75.59,377.93 
			75.59,387.25 140.5,387.25 140.5,377.93 		"/>
		<polygon class="st10" points="122.32,345.57 93.93,345.57 95.94,337.26 120.14,337.26 		"/>
		<rect x="89.63" y="354.93" class="st10" width="35.26" height="8.31"/>
		<polygon class="st9" points="124.89,377.93 108.13,305.94 112.03,305.94 129.99,377.93 		"/>
		<rect x="75.05" y="377.93" class="st9" width="64.92" height="4.57"/>
		<path class="st5" d="M139.97,388.54H75.05c-0.72,0-1.3-0.58-1.3-1.3v-9.32c0-0.72,0.58-1.3,1.3-1.3h9.49l17.19-71
			c0.14-0.58,0.66-0.99,1.26-0.99h9.04c0.6,0,1.12,0.41,1.26,0.99l17.18,71h9.49c0.72,0,1.3,0.58,1.3,1.3v9.32
			C141.26,387.96,140.68,388.54,139.97,388.54z M76.35,385.95h62.32v-6.72h-9.22c-0.6,0-1.12-0.41-1.26-0.99l-17.18-71h-7l-17.19,71
			c-0.14,0.58-0.66,0.99-1.26,0.99h-9.22V385.95z"/>
		<path class="st5" d="M113.02,379.23H86.1c-0.72,0-1.3-0.58-1.3-1.3c0-0.72,0.58-1.3,1.3-1.3h26.92c0.72,0,1.3,0.58,1.3,1.3
			C114.32,378.65,113.74,379.23,113.02,379.23z"/>
		<path class="st5" d="M135.93,379.23h-15.35c-0.72,0-1.3-0.58-1.3-1.3c0-0.72,0.58-1.3,1.3-1.3h15.35c0.72,0,1.3,0.58,1.3,1.3
			C137.23,378.65,136.65,379.23,135.93,379.23z"/>
	</g>
	<g>
		<g>
			<path class="st7" d="M118.24,420.13h-2.55l0.44-2.24h7.7l-0.43,2.24h-2.6l-1.48,7.9h-2.57L118.24,420.13z"/>
			<path class="st7" d="M123.03,428.03l2.02-10.68h2.57l-0.77,4.08l0.03,0c0.6-0.58,1.32-0.97,2.23-0.97c1.29,0,1.88,0.82,1.88,2.01
				c0,0.33-0.06,0.93-0.15,1.37l-0.79,4.19h-2.56l0.75-3.96c0.06-0.3,0.09-0.6,0.09-0.87c0-0.41-0.15-0.68-0.58-0.68
				c-0.67,0-1.25,0.84-1.52,2.26l-0.62,3.25H123.03z"/>
			<path class="st7" d="M138.25,427.6c-0.99,0.49-2.15,0.58-2.9,0.58c-2.18,0-3.36-1.14-3.36-3.19c0-2.26,1.63-4.53,4.42-4.53
				c1.54,0,2.75,0.85,2.75,2.36c0,1.85-1.69,2.61-4.74,2.52c0.03,0.17,0.12,0.35,0.27,0.49c0.28,0.25,0.73,0.38,1.32,0.38
				c0.76,0,1.47-0.15,2.11-0.45L138.25,427.6z M136.1,422.31c-0.93,0-1.37,0.69-1.45,1.17c1.56,0.02,2.11-0.21,2.11-0.68
				C136.76,422.54,136.52,422.31,136.1,422.31z"/>
			<path class="st7" d="M144.33,418.09c0.69-0.18,1.79-0.27,2.84-0.27c0.88,0,1.97,0.11,2.78,0.62c0.78,0.47,1.26,1.24,1.26,2.3
				c0,1.33-0.59,2.31-1.44,2.94c-0.85,0.64-2.04,0.93-3.32,0.93c-0.35,0-0.64-0.04-0.82-0.06l-0.67,3.48h-2.5L144.33,418.09z
				 M146.01,422.47c0.18,0.03,0.4,0.07,0.76,0.07c1.12,0,1.85-0.74,1.85-1.57c0-0.87-0.64-1.12-1.34-1.12
				c-0.37,0-0.63,0.02-0.79,0.05L146.01,422.47z"/>
			<path class="st7" d="M155.91,428.03c0.03-0.42,0.05-0.85,0.07-1.28h-0.04c-0.63,1.1-1.55,1.44-2.33,1.44
				c-1.33,0-2.29-1.03-2.29-2.63c0-2.46,1.56-5.1,5.38-5.1c0.96,0,1.97,0.2,2.64,0.41l-0.79,3.88c-0.15,0.81-0.31,2.32-0.29,3.28
				H155.91z M156.46,422.43c-0.16-0.03-0.34-0.05-0.47-0.05c-1.19,0-1.99,1.61-1.99,2.69c0,0.68,0.3,1.05,0.74,1.05
				c0.47,0,1.09-0.47,1.42-2.22L156.46,422.43z"/>
			<path class="st7" d="M160.3,428.78c0.4,0.22,1.37,0.37,1.93,0.37c1.01,0,1.75-0.42,2-1.67l0.08-0.42h-0.03
				c-0.55,0.61-1.11,0.89-1.92,0.89c-1.47,0-2.41-1.16-2.42-2.67c-0.02-2.4,1.69-4.81,5.06-4.81c1.13,0,2.04,0.17,2.89,0.51
				l-1.11,6.09c-0.24,1.27-0.65,2.54-1.58,3.27c-0.83,0.64-1.93,0.84-2.98,0.84c-1.02,0-1.97-0.17-2.49-0.45L160.3,428.78z
				 M165.12,422.49c-0.14-0.06-0.39-0.08-0.59-0.08c-1.09,0-1.88,1.27-1.88,2.49c0,0.71,0.35,1.09,0.82,1.09
				c0.54,0,1.1-0.55,1.31-1.71L165.12,422.49z"/>
			<path class="st7" d="M174.82,427.6c-0.99,0.49-2.15,0.58-2.9,0.58c-2.18,0-3.36-1.14-3.36-3.19c0-2.26,1.63-4.53,4.42-4.53
				c1.54,0,2.75,0.85,2.75,2.36c0,1.85-1.69,2.61-4.74,2.52c0.03,0.17,0.12,0.35,0.27,0.49c0.28,0.25,0.73,0.38,1.32,0.38
				c0.76,0,1.47-0.15,2.11-0.45L174.82,427.6z M172.67,422.31c-0.93,0-1.37,0.69-1.45,1.17c1.56,0.02,2.11-0.21,2.11-0.68
				C173.33,422.54,173.09,422.31,172.67,422.31z"/>
			<path class="st7" d="M181.02,428.03l0.77-4.1l-2-6.04h2.75l0.5,2.27c0.16,0.82,0.27,1.32,0.38,1.9h0.03
				c0.32-0.6,0.62-1.16,1.02-1.9l1.24-2.27h3.07l-4.4,5.97l-0.79,4.17H181.02z"/>
			<path class="st7" d="M195.95,423.5c0,2.87-1.96,4.69-4.55,4.69c-1.9,0-3.25-1.15-3.25-3.07c0-2.61,1.83-4.66,4.55-4.66
				C194.7,420.46,195.95,421.76,195.95,423.5z M190.82,425.08c0,0.72,0.33,1.17,0.95,1.17c1.05,0,1.53-1.67,1.53-2.73
				c0-0.61-0.26-1.13-0.93-1.13C191.26,422.4,190.81,424.17,190.82,425.08z"/>
			<path class="st7" d="M204.87,420.63l-0.92,4.88c-0.2,0.99-0.32,1.84-0.42,2.52h-2.26l0.11-1.12l-0.03-0.01
				c-0.8,0.96-1.67,1.29-2.52,1.29c-1.28,0-1.88-0.76-1.88-2.04c0-0.43,0.05-0.9,0.15-1.41l0.78-4.12h2.57l-0.73,3.89
				c-0.06,0.31-0.11,0.68-0.11,0.93c0,0.35,0.14,0.67,0.56,0.67c0.65,0,1.25-0.81,1.52-2.22l0.62-3.28H204.87z"/>
			<path class="st7" d="M209.96,418.09c0.7-0.18,1.81-0.27,2.93-0.27c0.94,0,1.99,0.09,2.77,0.52c0.73,0.39,1.28,1.06,1.28,2.11
				c0,1.52-0.94,2.38-2.25,2.84l-0.01,0.06c0.56,0.28,0.79,0.91,0.9,1.77c0.13,1.02,0.22,2.49,0.41,2.92h-2.63
				c-0.09-0.29-0.2-1.09-0.31-2.37c-0.1-1.16-0.48-1.45-1.27-1.45h-0.47l-0.72,3.82h-2.54L209.96,418.09z M211.69,422.31h0.79
				c1,0,1.79-0.57,1.79-1.46c0-0.7-0.63-1.02-1.37-1.02c-0.36,0-0.59,0.03-0.76,0.06L211.69,422.31z"/>
			<path class="st7" d="M223.67,427.6c-0.99,0.49-2.15,0.58-2.9,0.58c-2.18,0-3.36-1.14-3.36-3.19c0-2.26,1.63-4.53,4.42-4.53
				c1.54,0,2.75,0.85,2.75,2.36c0,1.85-1.69,2.61-4.74,2.52c0.03,0.17,0.12,0.35,0.27,0.49c0.28,0.25,0.73,0.38,1.32,0.38
				c0.76,0,1.47-0.15,2.11-0.45L223.67,427.6z M221.52,422.31c-0.93,0-1.37,0.69-1.45,1.17c1.56,0.02,2.11-0.21,2.11-0.68
				C222.19,422.54,221.95,422.31,221.52,422.31z"/>
			<path class="st7" d="M228.86,431.01l0.9-3.94h-0.03c-0.54,0.78-1.37,1.12-2.17,1.12c-1.31,0-2.31-1.07-2.31-2.84
				c0-2.32,1.53-4.89,5.17-4.89c1.11,0,2.08,0.23,2.89,0.42l-1.88,10.13H228.86z M230.49,422.52c-0.19-0.09-0.41-0.12-0.68-0.12
				c-1.19,0-1.88,1.52-1.88,2.61c0,0.74,0.33,1.11,0.78,1.11c0.57,0,1.2-0.59,1.45-1.85L230.49,422.52z"/>
			<path class="st7" d="M242.02,420.63l-0.92,4.88c-0.2,0.99-0.32,1.84-0.42,2.52h-2.26l0.11-1.12l-0.03-0.01
				c-0.8,0.96-1.67,1.29-2.52,1.29c-1.28,0-1.88-0.76-1.88-2.04c0-0.43,0.05-0.9,0.15-1.41l0.78-4.12h2.57l-0.73,3.89
				c-0.06,0.31-0.11,0.68-0.11,0.93c0,0.35,0.14,0.67,0.56,0.67c0.65,0,1.25-0.81,1.52-2.22l0.62-3.28H242.02z"/>
			<path class="st7" d="M248.87,427.6c-0.99,0.49-2.15,0.58-2.9,0.58c-2.18,0-3.36-1.14-3.36-3.19c0-2.26,1.63-4.53,4.42-4.53
				c1.54,0,2.75,0.85,2.75,2.36c0,1.85-1.69,2.61-4.74,2.52c0.03,0.17,0.12,0.35,0.27,0.49c0.28,0.25,0.73,0.38,1.32,0.38
				c0.76,0,1.47-0.15,2.11-0.45L248.87,427.6z M246.72,422.31c-0.93,0-1.37,0.69-1.45,1.17c1.56,0.02,2.11-0.21,2.11-0.68
				C247.38,422.54,247.14,422.31,246.72,422.31z"/>
			<path class="st7" d="M250.55,425.8c0.45,0.21,1.31,0.54,2.07,0.53c0.51,0,0.73-0.2,0.73-0.44c0-0.27-0.23-0.47-0.88-0.77
				c-0.85-0.4-1.66-1.01-1.66-2c0-1.64,1.44-2.66,3.49-2.66c0.94,0,1.66,0.18,2.05,0.39l-0.59,1.79c-0.33-0.14-0.88-0.32-1.56-0.32
				c-0.49,0-0.81,0.15-0.81,0.45c0,0.21,0.28,0.42,0.85,0.68c0.8,0.39,1.77,0.94,1.77,2.05c0,1.75-1.51,2.68-3.64,2.68
				c-0.99,0-1.96-0.26-2.43-0.61L250.55,425.8z"/>
			<path class="st7" d="M261.3,418.52l-0.39,2.1h1.5l-0.38,1.94h-1.5l-0.42,2.05c-0.05,0.24-0.11,0.62-0.11,0.83
				c0,0.33,0.13,0.58,0.6,0.58c0.18,0,0.4,0,0.6-0.02l-0.33,2c-0.31,0.12-0.91,0.18-1.41,0.18c-1.39,0-2.08-0.66-2.08-1.66
				c0-0.39,0.04-0.79,0.15-1.37l0.51-2.6h-0.9l0.36-1.94h0.9l0.29-1.51L261.3,418.52z"/>
			<path class="st7" d="M268.78,427.6c-0.99,0.49-2.15,0.58-2.9,0.58c-2.18,0-3.36-1.14-3.36-3.19c0-2.26,1.63-4.53,4.42-4.53
				c1.54,0,2.75,0.85,2.75,2.36c0,1.85-1.69,2.61-4.74,2.52c0.03,0.17,0.12,0.35,0.27,0.49c0.28,0.25,0.73,0.38,1.32,0.38
				c0.76,0,1.47-0.15,2.11-0.45L268.78,427.6z M266.63,422.31c-0.92,0-1.37,0.69-1.45,1.17c1.56,0.02,2.11-0.21,2.11-0.68
				C267.29,422.54,267.05,422.31,266.63,422.31z"/>
			<path class="st7" d="M279.12,417.35l-1.44,7.59c-0.2,1.02-0.33,2.16-0.36,3.1h-2.35l0.07-1.09H275
				c-0.64,0.96-1.54,1.25-2.32,1.25c-1.18,0-2.32-0.91-2.32-2.83c0-2.55,1.81-4.9,4.68-4.9c0.23,0,0.57,0.04,0.88,0.15l0.64-3.26
				H279.12z M275.57,422.63c-0.15-0.13-0.43-0.23-0.71-0.23c-1.1,0-1.83,1.34-1.83,2.53c0,0.89,0.42,1.21,0.86,1.21
				c0.48,0,1.07-0.47,1.34-1.78L275.57,422.63z"/>
			<path class="st7" d="M289.51,427.77c-0.52,0.23-1.44,0.42-2.69,0.42c-2.75,0-4.64-1.64-4.64-4.34c0-2.45,1.12-4.19,2.73-5.17
				c1.06-0.65,2.27-0.94,3.67-0.94c1.09,0,1.92,0.24,2.23,0.4l-0.67,2.09c-0.26-0.1-0.91-0.29-1.77-0.29c-0.8,0-1.52,0.21-2.07,0.63
				c-0.8,0.61-1.33,1.64-1.33,3c0,1.54,0.95,2.44,2.53,2.44c0.7,0,1.34-0.11,1.82-0.3L289.51,427.77z"/>
			<path class="st7" d="M298.61,423.5c0,2.87-1.96,4.69-4.55,4.69c-1.9,0-3.25-1.15-3.25-3.07c0-2.61,1.83-4.66,4.55-4.66
				C297.35,420.46,298.61,421.76,298.61,423.5z M293.47,425.08c0,0.72,0.33,1.17,0.95,1.17c1.05,0,1.53-1.67,1.53-2.73
				c0-0.61-0.26-1.13-0.92-1.13C293.92,422.4,293.47,424.17,293.47,425.08z"/>
			<path class="st7" d="M307.52,420.63l-0.92,4.88c-0.2,0.99-0.32,1.84-0.42,2.52h-2.26l0.11-1.12l-0.03-0.01
				c-0.8,0.96-1.67,1.29-2.52,1.29c-1.28,0-1.88-0.76-1.88-2.04c0-0.43,0.05-0.9,0.15-1.41l0.78-4.12h2.56l-0.73,3.89
				c-0.06,0.31-0.1,0.68-0.1,0.93c0,0.35,0.14,0.67,0.56,0.67c0.66,0,1.25-0.81,1.52-2.22l0.62-3.28H307.52z"/>
			<path class="st7" d="M307.82,428.03l2.04-10.68h2.57l-2.04,10.68H307.82z"/>
			<path class="st7" d="M321.06,417.35l-1.44,7.59c-0.2,1.02-0.33,2.16-0.36,3.1h-2.35l0.07-1.09h-0.03
				c-0.64,0.96-1.54,1.25-2.32,1.25c-1.18,0-2.32-0.91-2.32-2.83c0-2.55,1.81-4.9,4.68-4.9c0.23,0,0.57,0.04,0.88,0.15l0.64-3.26
				H321.06z M317.52,422.63c-0.15-0.13-0.43-0.23-0.71-0.23c-1.1,0-1.83,1.34-1.83,2.53c0,0.89,0.42,1.21,0.86,1.21
				c0.48,0,1.07-0.47,1.34-1.78L317.52,422.63z"/>
			<path class="st7" d="M323.58,428.03l1.92-10.14h3.05l0.91,3.06c0.4,1.35,0.69,2.51,0.94,3.74h0.04c0.04-1.09,0.2-2.32,0.49-3.84
				l0.55-2.96h2.39l-1.92,10.14h-2.68l-1.02-3.31c-0.43-1.43-0.73-2.44-1.01-3.8h-0.05c-0.11,1.01-0.38,2.62-0.7,4.31l-0.52,2.79
				H323.58z"/>
			<path class="st7" d="M341.83,423.5c0,2.87-1.96,4.69-4.55,4.69c-1.9,0-3.25-1.15-3.25-3.07c0-2.61,1.83-4.66,4.55-4.66
				C340.58,420.46,341.83,421.76,341.83,423.5z M336.7,425.08c0,0.72,0.33,1.17,0.95,1.17c1.05,0,1.53-1.67,1.53-2.73
				c0-0.61-0.26-1.13-0.92-1.13C337.14,422.4,336.69,424.17,336.7,425.08z"/>
			<path class="st7" d="M346.93,418.52l-0.39,2.1h1.5l-0.38,1.94h-1.5l-0.42,2.05c-0.05,0.24-0.11,0.62-0.11,0.83
				c0,0.33,0.13,0.58,0.6,0.58c0.18,0,0.4,0,0.6-0.02l-0.33,2c-0.31,0.12-0.91,0.18-1.41,0.18c-1.39,0-2.08-0.66-2.08-1.66
				c0-0.39,0.04-0.79,0.15-1.37l0.51-2.6h-0.9l0.36-1.94h0.9l0.29-1.51L346.93,418.52z"/>
			<path class="st7" d="M352.62,418.07c0.77-0.15,1.8-0.25,2.87-0.25c1.07,0,1.85,0.1,2.58,0.46c0.77,0.33,1.38,1.03,1.38,1.98
				c0,1.28-0.9,2.02-1.98,2.35v0.04c0.99,0.32,1.56,1.13,1.56,2.19c0,1.12-0.61,1.9-1.46,2.44c-0.89,0.57-2.24,0.82-4.06,0.82
				c-1.26,0-2.25-0.09-2.75-0.2L352.62,418.07z M353.61,426.07c0.22,0.03,0.45,0.03,0.75,0.03c1.04,0,1.96-0.4,1.96-1.32
				s-0.78-1.12-1.73-1.12h-0.53L353.61,426.07z M354.46,421.8h0.63c1.08,0,1.75-0.4,1.75-1.11c0-0.62-0.53-0.89-1.24-0.89
				c-0.34,0-0.61,0.02-0.77,0.06L354.46,421.8z"/>
			<path class="st7" d="M366.36,427.6c-0.99,0.49-2.15,0.58-2.9,0.58c-2.18,0-3.36-1.14-3.36-3.19c0-2.26,1.63-4.53,4.42-4.53
				c1.54,0,2.75,0.85,2.75,2.36c0,1.85-1.69,2.61-4.74,2.52c0.03,0.17,0.12,0.35,0.27,0.49c0.28,0.25,0.73,0.38,1.32,0.38
				c0.76,0,1.47-0.15,2.11-0.45L366.36,427.6z M364.21,422.31c-0.92,0-1.37,0.69-1.45,1.17c1.56,0.02,2.11-0.21,2.11-0.68
				C364.88,422.54,364.64,422.31,364.21,422.31z"/>
			<path class="st7" d="M372.49,417.89h6.3l-0.42,2.18h-3.71l-0.38,1.94h3.5l-0.42,2.16h-3.5l-0.73,3.86h-2.57L372.49,417.89z"/>
			<path class="st7" d="M386.55,423.5c0,2.87-1.96,4.69-4.55,4.69c-1.9,0-3.25-1.15-3.25-3.07c0-2.61,1.83-4.66,4.55-4.66
				C385.29,420.46,386.55,421.76,386.55,423.5z M381.41,425.08c0,0.72,0.33,1.17,0.95,1.17c1.05,0,1.53-1.67,1.53-2.73
				c0-0.61-0.26-1.13-0.92-1.13C381.86,422.4,381.41,424.17,381.41,425.08z"/>
			<path class="st7" d="M395.46,420.63l-0.92,4.88c-0.2,0.99-0.32,1.84-0.42,2.52h-2.26l0.11-1.12l-0.03-0.01
				c-0.8,0.96-1.67,1.29-2.52,1.29c-1.28,0-1.88-0.76-1.88-2.04c0-0.43,0.05-0.9,0.15-1.41l0.78-4.12h2.56l-0.73,3.89
				c-0.06,0.31-0.1,0.68-0.1,0.93c0,0.35,0.14,0.67,0.56,0.67c0.66,0,1.25-0.81,1.52-2.22l0.62-3.28H395.46z"/>
			<path class="st7" d="M395.74,428.03l0.92-4.88c0.2-0.99,0.32-1.84,0.42-2.52h2.26l-0.12,1.13h0.03c0.71-0.93,1.58-1.3,2.52-1.3
				c1.35,0,1.91,0.84,1.91,2.01c0,0.33-0.06,0.92-0.12,1.26l-0.82,4.29h-2.57l0.76-4.02c0.05-0.25,0.08-0.53,0.08-0.78
				c0-0.42-0.13-0.72-0.56-0.72c-0.62,0-1.26,0.81-1.55,2.36l-0.6,3.16H395.74z"/>
			<path class="st7" d="M413.44,417.35l-1.44,7.59c-0.2,1.02-0.33,2.16-0.36,3.1h-2.35l0.07-1.09h-0.03
				c-0.64,0.96-1.54,1.25-2.32,1.25c-1.18,0-2.32-0.91-2.32-2.83c0-2.55,1.81-4.9,4.68-4.9c0.23,0,0.57,0.04,0.88,0.15l0.64-3.26
				H413.44z M409.89,422.63c-0.15-0.13-0.43-0.23-0.71-0.23c-1.1,0-1.83,1.34-1.83,2.53c0,0.89,0.42,1.21,0.86,1.21
				c0.48,0,1.07-0.47,1.34-1.78L409.89,422.63z"/>
			<path class="st7" d="M413.22,426.76c0-0.94,0.69-1.75,1.69-1.75c0.83,0,1.42,0.58,1.42,1.45c0,1.02-0.72,1.71-1.71,1.71
				C413.77,428.17,413.22,427.58,413.22,426.76z"/>
		</g>
	</g>
</g>
<g id="DESIGNED_BY_FREEPIK_1_" class="st0">
</g>
</svg>
