<svg id="Layer_1" enable-background="new 0 0 511.764 511.764" height="512" viewBox="0 0 511.764 511.764" width="512" xmlns="http://www.w3.org/2000/svg"><g><g><g><g><path d="m458.087 0h-163.667v12.432h-112.291v-12.432h-162.589c-10.711 0-19.394 8.683-19.394 19.394v438.89c0 10.116 8.2 18.316 18.316 18.316h429.796c15.544 0 28.145-12.601 28.145-28.145v-430.139c0-10.116-8.2-18.316-18.316-18.316z" fill="#fdbf00"/></g></g></g><path d="m450.967 0h-156.547v12.432h-55.955v101.623h-.191v362.544h220.737c9.605 0 17.391-7.792 17.391-17.404v-439.726c-1.089-2.701-5.305-19.469-25.435-19.469z" fill="#ff9100"/><path d="m457.012 0h-162.592v12.432h-112.291v-12.432h-164.113c-9.869 0-17.87 8.006-17.87 17.883v96.173h476.257v-94.651c0-10.717-8.682-19.405-19.391-19.405z" fill="#ff9100"/><path d="m458.139 0h-163.719v12.432h-56.146v101.623h238.128v-95.778c.001-10.094-8.176-18.277-18.263-18.277z" fill="#ff641a"/><path d="m192.318 424.415h-146.373c-5.513 0-9.982-4.469-9.982-9.982v-79.581c0-5.513 4.469-9.982 9.982-9.982h146.373c5.513 0 9.982 4.469 9.982 9.982v79.581c0 5.513-4.469 9.982-9.982 9.982z" fill="#ffda2d"/><path d="m287.832 193.437h-99.115c-3.639 0-6.588-2.95-6.588-6.588v-186.849h112.291v186.848c0 3.639-2.949 6.589-6.588 6.589z" fill="#ffe470"/><path d="m238.275.402v192.633c0 .222.18.402.402.402h50.054c3.142 0 5.689-2.547 5.689-5.689v-187.346c0-.222-.18-.402-.402-.402h-55.342c-.222 0-.401.18-.401.402z" fill="#ffda2d"/><g><g><path d="m190.017 289.638h-141.771c-8.401 0-15.212-6.988-15.212-15.607s6.811-15.607 15.212-15.607h141.771c8.401 0 15.212 6.988 15.212 15.607s-6.811 15.607-15.212 15.607z" fill="#ff9100"/></g></g><circle cx="408.123" cy="408.269" fill="#bee75e" r="103.495"/><path d="m408.123 304.774c-.017 0-.034 0-.051 0v206.989c.017 0 .034.001.051.001 57.159 0 103.495-46.336 103.495-103.495s-46.336-103.495-103.495-103.495z" fill="#00da80"/><path d="m461.223 370.648c-6.027-6.027-15.799-6.027-21.826 0l-42.502 42.502-20.046-20.047c-6.027-6.029-15.799-6.027-21.826 0s-6.027 15.8 0 21.826l30.959 30.96c2.895 2.895 6.82 4.521 10.914 4.521 4.093 0 8.019-1.626 10.913-4.521l53.415-53.415c6.027-6.027 6.027-15.799-.001-21.826z" fill="#fff"/><path d="m439.397 370.648-31.325 31.325v43.653l53.151-53.152c6.027-6.027 6.027-15.8 0-21.826-6.026-6.027-15.799-6.027-21.826 0z" fill="#e6ffff"/></g></svg>