<?xml version="1.0" encoding="utf-8"?>
<!-- Generator: Adobe Illustrator 23.0.0, SVG Export Plug-In . SVG Version: 6.00 Build 0)  -->
<svg version="1.1" id="Layer_1" xmlns="http://www.w3.org/2000/svg" xmlns:xlink="http://www.w3.org/1999/xlink" x="0px" y="0px"
	 viewBox="0 0 612 792" style="enable-background:new 0 0 612 792;" xml:space="preserve">
<style type="text/css">
	.st0{fill:#F15E5C;}
	.st1{fill:#616367;}
	.st2{fill:#4272B8;}
</style>
<g>
	<path class="st0" d="M59.3,581.9v158.9c0,1.3,0.7,2.7,1.6,3.5l32.5,26.3c1.6,1.3,4,1.3,5.6,0l0,0l98.5-79.5c2.3-1.7,2.3-5.2,0-6.9
		l-131-105.7C63.7,576.1,59.3,578.2,59.3,581.9z M80.1,615.9L80.1,615.9L80.1,615.9L80.1,615.9z"/>
	<path class="st1" d="M562.7,439.3v158.9c0,1.3-0.7,2.7-1.6,3.5L349,772.8l-6.7,5.3l-5.3,4.3c-0.8,0.7-1.7,1.1-2.8,1.1H137.3
		c-4.3,0-6.1-5.3-2.8-7.9l95.7-77.3l6.5-5.3l6.7-5.3l312.1-251.8C558.3,433.4,562.7,435.6,562.7,439.3z"/>
	<path class="st2" d="M197.7,471c2.3,1.7,2.3,5.2,0,6.9l-98.5,79.5l0,0c-1.6,1.3-4,1.3-5.6,0l-32.5-26.3c-1.1-0.8-1.6-2.1-1.6-3.5
		V368.8c0-3.7,4.4-5.9,7.2-3.5L197.7,471z"/>
	<path class="st0" d="M562.7,226.1V385c0,1.3-0.7,2.7-1.6,3.5L348.7,559.7l-6.5,5.3l-5.3,4.3c-0.8,0.7-1.7,1.1-2.8,1.1H137.1
		c-4.3,0-6.1-5.3-2.8-7.9l95.7-77.3l13.3-10.7l312.1-251.8C558.3,220.3,562.7,222.4,562.7,226.1z"/>
	<path class="st0" d="M59.3,155.6v158.9c0,1.3,0.7,2.7,1.6,3.5l32.5,26.3c1.6,1.3,4,1.3,5.6,0l0,0l98.5-79.5c2.3-1.7,2.3-5.2,0-6.9
		l-131-105.7C63.7,149.8,59.3,151.9,59.3,155.6z M80.1,189.6L80.1,189.6L80.1,189.6L80.1,189.6z"/>
	<path class="st1" d="M562.7,13v158.9c0,1.3-0.7,2.7-1.6,3.5L349,346.5l-6.7,5.3l-5.3,4.3c-0.8,0.7-1.7,1.1-2.8,1.1H137.3
		c-4.3,0-6.1-5.3-2.8-7.9l95.7-77.3l6.7-5.3l6.5-5.3L555.5,9.5C558.3,7.1,562.7,9.2,562.7,13z"/>
</g>
</svg>
