<?xml version="1.0" encoding="utf-8"?>
<!-- Generator: Adobe Illustrator 23.0.0, SVG Export Plug-In . SVG Version: 6.00 Build 0)  -->
<svg version="1.1" id="Capa_1" xmlns="http://www.w3.org/2000/svg" xmlns:xlink="http://www.w3.org/1999/xlink" x="0px" y="0px"
	 viewBox="0 0 512 512" style="enable-background:new 0 0 512 512;" xml:space="preserve">
<style type="text/css">
	.st0{fill:#ADEEFA;}
	.st1{fill:#FFEC80;}
	.st2{fill:#F56C6C;}
	.st3{fill:#E2E9EE;}
	.st4{fill:#FFFFFF;}
	.st5{fill:#A0E4A5;}
</style>
<g id="XMLID_1107_">
	<g id="XMLID_1077_">
		<path id="XMLID_1116_" class="st0" d="M230,34c22.1,0,40,17.9,40,40v16h-80V74C190,51.9,207.9,34,230,34z"/>
		<path id="XMLID_1530_" class="st1" d="M19,186.1h422c5,0,9-4,9-9V99c0-5-4-9-9-9H19c-5,0-9,4-9,9v78.1C10,182.1,14,186.1,19,186.1
			z"/>
		<path id="XMLID_1529_" class="st2" d="M42.2,186.1h375.7V442c0,11-9,20-20,20H62.2c-11,0-20-9-20-20L42.2,186.1z"/>
		<path id="XMLID_1526_" class="st3" d="M270,462h-80V186.1h80V462z"/>
		<path id="XMLID_1525_" class="st4" d="M270,186.1h-80V90h80V186.1z"/>
	</g>
	<g id="XMLID_1060_">
		<circle id="XMLID_1678_" class="st5" cx="368" cy="368" r="134"/>
		<g id="XMLID_345_">
			<path id="XMLID_346_" d="M190,323.5c2.6,0,5.2-1.1,7.1-2.9c1.9-1.9,2.9-4.4,2.9-7.1c0-2.6-1.1-5.2-2.9-7.1s-4.4-2.9-7.1-2.9
				c-2.6,0-5.2,1.1-7.1,2.9s-2.9,4.4-2.9,7.1c0,2.6,1.1,5.2,2.9,7.1C184.8,322.4,187.4,323.5,190,323.5z"/>
			<path id="XMLID_295_" d="M427.8,237v-40.9H441c10.5,0,19-8.5,19-19V99c0-10.5-8.5-19-19-19h-62.3c12.9-12.7,21-30.3,21-49.8
				c0-5.5-4.5-10-10-10c-5.5,0-10,4.5-10,10c0,18.7-10.3,35-25.6,43.5c3.8-7.1,6-15.1,6-23.7c0-27.6-22.4-50-50-50
				c-22.6,0-41.7,15.1-47.9,35.7C253.4,28.4,242.2,24,230,24c-12.2,0-23.4,4.4-32.1,11.7C191.7,15.1,172.6,0,150,0
				c-27.6,0-50,22.4-50,50c0,8.6,2.2,16.6,6,23.7c-15.3-8.5-25.6-24.8-25.6-43.5c0-5.5-4.5-10-10-10s-10,4.5-10,10
				c0,19.5,8,37.1,21,49.8H19C8.5,80,0,88.5,0,99v78.1c0,10.5,8.5,19,19,19h13.2V442c0,16.5,13.5,30,30,30h206.3
				c25.9,24.8,60.9,40,99.5,40c79.4,0,144-64.6,144-144C512,309.9,477.4,259.8,427.8,237L427.8,237z M280,74V50
				c0-16.5,13.5-30,30-30c16.5,0,30,13.5,30,30s-13.5,30-30,30h-30V74z M280,100h160v76.1H280V100z M280,196.1h127.8v33.5
				c-12.7-3.6-26-5.6-39.8-5.6c-33.1,0-63.7,11.2-88,30.1L280,196.1z M200,74c0-16.5,13.5-30,30-30s30,13.5,30,30v6h-60V74z
				 M200,100h60v76.1h-60V100z M150,20c16.5,0,30,13.5,30,30v24v6h-30c-16.5,0-30-13.5-30-30S133.5,20,150,20z M20,176.1V100h160
				v76.1H42.2H20z M200,452v-93.5c0-5.5-4.5-10-10-10c-5.5,0-10,4.5-10,10V452H62.2c-5.5,0-10-4.5-10-10V196.1H180v72.4
				c0,5.5,4.5,10,10,10c5.5,0,10-4.5,10-10v-72.4h60v76.8c-22.4,25.4-36,58.7-36,95.1c0,31.3,10.1,60.3,27.1,84H200z M368,492
				c-68.4,0-124-55.6-124-124s55.6-124,124-124s124,55.6,124,124S436.4,492,368,492z"/>
			<path id="XMLID_1134_" d="M400.6,302.2c-5-2.4-11-0.3-13.4,4.6l-55,113.3c-2.4,5-0.3,11,4.6,13.4c1.4,0.7,2.9,1,4.4,1
				c3.7,0,7.3-2.1,9-5.6l55-113.3C407.6,310.6,405.6,304.6,400.6,302.2L400.6,302.2z"/>
			<path id="XMLID_1209_" d="M342.7,296.6c-6-6-14.1-9.4-22.6-9.4c-8.5,0-16.6,3.3-22.6,9.4c-12.5,12.5-12.5,32.8,0,45.3
				c6.2,6.2,14.4,9.4,22.6,9.4c8.2,0,16.4-3.1,22.6-9.4C355.2,329.4,355.2,309.1,342.7,296.6L342.7,296.6z M328.6,327.7
				c-4.7,4.7-12.3,4.7-17,0c-4.7-4.7-4.7-12.3,0-17c2.3-2.3,5.3-3.5,8.5-3.5c3.2,0,6.2,1.2,8.5,3.5
				C333.3,315.4,333.3,323,328.6,327.7L328.6,327.7z"/>
			<path id="XMLID_1749_" d="M395.1,394.2c-12.5,12.5-12.5,32.8,0,45.3c6,6,14.1,9.4,22.6,9.4c8.5,0,16.6-3.3,22.6-9.4
				c12.5-12.5,12.5-32.8,0-45.3C427.8,381.7,407.5,381.7,395.1,394.2L395.1,394.2z M426.2,425.3c-2.3,2.3-5.3,3.5-8.5,3.5
				c-3.2,0-6.2-1.2-8.5-3.5c-4.7-4.7-4.7-12.3,0-17c2.3-2.3,5.4-3.5,8.5-3.5c3.1,0,6.1,1.2,8.5,3.5
				C430.9,413,430.9,420.6,426.2,425.3z"/>
		</g>
	</g>
</g>
</svg>
