<?xml version="1.0" encoding="utf-8"?>
<!-- Generator: Adobe Illustrator 23.0.0, SVG Export Plug-In . SVG Version: 6.00 Build 0)  -->
<svg version="1.1" id="Capa_1" xmlns="http://www.w3.org/2000/svg" xmlns:xlink="http://www.w3.org/1999/xlink" x="0px" y="0px"
	 viewBox="0 0 512 512" style="enable-background:new 0 0 512 512;" xml:space="preserve">
<style type="text/css">
	.st0{fill:#FFE357;}
	.st1{fill:#FFEC80;}
	.st2{fill:#61E6F7;}
	.st3{fill:#ADEEFA;}
	.st4{fill:#E91E63;}
	.st5{fill:#FFFFFF;}
	.st6{fill:#5DE263;}
	.st7{fill:#A0E4A5;}
</style>
<g>
	<g transform="translate(1 1)">
		<path class="st0" d="M451.3,118.5V339l-34.1,163.5H109.9c-9.4,0-17-7.7-17.1-17.1V24.6c0-9.4,7.7-17,17.1-17.1h230.4L451.3,118.5z
			"/>
		<path class="st1" d="M425.7,118.5V339l-34.1,163.5H109.9c-9.4,0-17-7.7-17.1-17.1V24.6c0-9.4,7.7-17,17.1-17.1h204.8L425.7,118.5z
			"/>
		<path class="st2" d="M24.6,152.6h145.1c9.4,0,17.1,7.6,17.1,17.1v204.8c0,9.4-7.6,17.1-17.1,17.1H24.6c-9.4,0-17.1-7.6-17.1-17.1
			V169.7C7.5,160.2,15.2,152.6,24.6,152.6z"/>
		<path class="st3" d="M24.6,152.6h119.5c9.4,0,17.1,7.6,17.1,17.1v204.8c0,9.4-7.6,17.1-17.1,17.1H24.6c-9.4,0-17.1-7.6-17.1-17.1
			V169.7C7.5,160.2,15.2,152.6,24.6,152.6z"/>
		<path class="st0" d="M340.3,7.5v93.9c0,9.4,7.6,17.1,17.1,17.1h93.9L340.3,7.5z"/>
		<g>
			<path class="st4" d="M118.5,255h25.6c4.7,0,8.5,3.8,8.5,8.5v17.1c0,4.7-3.8,8.5-8.5,8.5h-25.6c-4.7,0-8.5-3.8-8.5-8.5v-17.1
				C109.9,258.8,113.8,255,118.5,255z"/>
			<path class="st4" d="M118.5,323.3h25.6c4.7,0,8.5,3.8,8.5,8.5v17.1c0,4.7-3.8,8.5-8.5,8.5h-25.6c-4.7,0-8.5-3.8-8.5-8.5v-17.1
				C109.9,327.1,113.8,323.3,118.5,323.3z"/>
		</g>
		<path class="st5" d="M50.2,186.7h93.9c4.7,0,8.5,3.8,8.5,8.5v17.1c0,4.7-3.8,8.5-8.5,8.5H50.2c-4.7,0-8.5-3.8-8.5-8.5v-17.1
			C41.7,190.6,45.5,186.7,50.2,186.7z"/>
		<path class="st6" d="M494.8,452.5c-15.9,34.8-52.9,54.8-90.6,49c-7.8-1.2-15.3-3.5-22.4-6.7c-31.4-14.3-51.1-46.2-49.9-80.7
			s23.1-64.9,55.4-76.9c32.3-12.1,68.8-3.5,92.3,21.8C503.1,384.2,509.1,421.1,494.8,452.5z"/>
		<path class="st7" d="M469.2,452.5c-12,26.3-36.4,44.7-65,49c-7.8-1.2-15.3-3.5-22.4-6.7c-34.4-15.7-54.4-52.1-49.1-89.6
			s34.6-66.9,72-72.5c26.4,4.1,49.3,20.4,62,43.9C479.3,400.1,480.2,428.2,469.2,452.5z"/>
	</g>
	<g>
		<path d="M25.6,401.1h145.1c14.1,0,25.6-11.5,25.6-25.6V170.7c0-14.1-11.5-25.6-25.6-25.6H25.6C11.5,145.1,0,156.5,0,170.7v204.8
			C0,389.6,11.5,401.1,25.6,401.1z M17.1,170.7c0-4.7,3.8-8.5,8.5-8.5h145.1c4.7,0,8.5,3.8,8.5,8.5v204.8c0,4.7-3.8,8.5-8.5,8.5
			H25.6c-4.7,0-8.5-3.8-8.5-8.5L17.1,170.7L17.1,170.7z"/>
		<path d="M460.7,118.9c0-0.7-0.2-1.5-0.4-2.2c-0.1-0.3-0.2-0.5-0.3-0.8c-0.4-0.9-1-1.8-1.7-2.5L347.4,2.5c-0.7-0.7-1.6-1.3-2.5-1.7
			c-0.3-0.1-0.5-0.2-0.8-0.3c-0.7-0.2-1.5-0.4-2.2-0.4c-0.2,0-0.3-0.1-0.5-0.1H110.9C96.8,0,85.4,11.5,85.3,25.6v93.9
			c0,4.7,3.8,8.5,8.5,8.5c4.7,0,8.5-3.8,8.5-8.5V25.6c0-4.7,3.8-8.5,8.5-8.5h221.9v85.3c0,14.1,11.5,25.6,25.6,25.6h85.3v200
			c-44-12.5-90.7,8.5-110.3,49.9c-19.7,41.3-6.6,90.8,30.9,117.1H110.9c-4.7,0-8.5-3.8-8.5-8.5v-59.7c0-4.7-3.8-8.5-8.5-8.5
			c-4.7,0-8.5,3.8-8.5,8.5v59.7c0,14.1,11.5,25.6,25.6,25.6h306.8c0.1,0,0.2,0,0.3,0c43.4,0.1,81.2-29.6,91.4-71.8
			c10.2-42.2-9.9-85.8-48.6-105.6V119.5C460.8,119.3,460.7,119.1,460.7,118.9z M358.4,110.9c-4.7,0-8.5-3.8-8.5-8.5V29.1l81.8,81.8
			H358.4z M488,450c-17.6,38.6-63.2,55.6-101.7,38s-55.6-63.2-38-101.7s63.1-55.6,101.7-38C488.6,365.9,505.6,411.4,488,450z"/>
		<path d="M145.1,247.5h-25.6c-9.4,0-17.1,7.6-17.1,17.1v17.1c0,9.4,7.6,17.1,17.1,17.1h25.6c9.4,0,17.1-7.6,17.1-17.1v-17.1
			C162.1,255.1,154.5,247.5,145.1,247.5z M145.1,281.6h-25.6v-17.1h25.6V281.6z"/>
		<path d="M145.1,315.7h-25.6c-9.4,0-17.1,7.6-17.1,17.1v17.1c0,9.4,7.6,17.1,17.1,17.1h25.6c9.4,0,17.1-7.6,17.1-17.1v-17.1
			C162.1,323.4,154.5,315.7,145.1,315.7z M145.1,349.9h-25.6l0-17.1h25.6V349.9z"/>
		<path d="M42.7,281.6h8.5v8.5c0,4.7,3.8,8.5,8.5,8.5s8.5-3.8,8.5-8.5v-8.5h8.5c4.7,0,8.5-3.8,8.5-8.5s-3.8-8.5-8.5-8.5h-8.5V256
			c0-4.7-3.8-8.5-8.5-8.5s-8.5,3.8-8.5,8.5v8.5h-8.5c-4.7,0-8.5,3.8-8.5,8.5S38,281.6,42.7,281.6z"/>
		<path d="M42.7,349.9h34.1c4.7,0,8.5-3.8,8.5-8.5s-3.8-8.5-8.5-8.5H42.7c-4.7,0-8.5,3.8-8.5,8.5S38,349.9,42.7,349.9z"/>
		<path d="M221.9,179.2h196.3c4.7,0,8.5-3.8,8.5-8.5c0-4.7-3.8-8.5-8.5-8.5H221.9c-4.7,0-8.5,3.8-8.5,8.5
			C213.3,175.4,217.2,179.2,221.9,179.2z"/>
		<path d="M221.9,230.4h196.3c4.7,0,8.5-3.8,8.5-8.5c0-4.7-3.8-8.5-8.5-8.5H221.9c-4.7,0-8.5,3.8-8.5,8.5S217.2,230.4,221.9,230.4z"
			/>
		<path d="M221.9,281.6h196.3c4.7,0,8.5-3.8,8.5-8.5s-3.8-8.5-8.5-8.5H221.9c-4.7,0-8.5,3.8-8.5,8.5S217.2,281.6,221.9,281.6z"/>
		<path d="M221.9,332.8h119.5c4.7,0,8.5-3.8,8.5-8.5s-3.8-8.5-8.5-8.5H221.9c-4.7,0-8.5,3.8-8.5,8.5S217.2,332.8,221.9,332.8z"/>
		<path d="M51.2,230.4h93.9c9.4,0,17.1-7.6,17.1-17.1v-17.1c0-9.4-7.6-17.1-17.1-17.1H51.2c-9.4,0-17.1,7.6-17.1,17.1v17.1
			C34.1,222.8,41.8,230.4,51.2,230.4z M51.2,196.3h93.9l0,17.1H51.2V196.3z"/>
		<path d="M446,377.6l1.1-2.5c2-4.3,0.1-9.3-4.2-11.3s-9.3-0.1-11.3,4.2l-1.1,2.5c-5.4-1.2-11-1.2-16.4,0c-8.2,1.7-15,7.2-18.5,14.8
			c-3.5,7.6-3.1,16.4,1,23.7c2.6,4.9,6.2,9.2,10.7,12.4l-9.6,21.1c-1.1-1.2-2.1-2.5-2.9-3.9c-1.5-2.7-1.8-6-0.7-8.9
			c1.3-2.8,1-6-0.8-8.5c-1.8-2.5-4.7-3.8-7.8-3.5c-3,0.3-5.7,2.2-6.9,5c-3.3,7.6-3,16.3,1,23.7c2.6,4.9,6.2,9.2,10.7,12.4l-1.1,2.5
			c-1.3,2.8-1,6,0.8,8.5c1.8,2.5,4.7,3.8,7.8,3.5c3-0.3,5.7-2.2,7-5l1.1-2.4c2.6,0.6,5.3,0.9,8,0.9c2.8,0,5.7-0.3,8.4-1
			c8.2-1.7,15-7.2,18.5-14.8s3.1-16.4-1-23.7c-2.6-4.9-6.2-9.2-10.7-12.4l9.6-21.1c1.1,1.2,2.1,2.5,2.9,3.9c1.5,2.7,1.8,6,0.7,8.9
			c-1.3,2.8-1,6,0.8,8.5c1.8,2.5,4.7,3.8,7.8,3.5c3-0.3,5.7-2.2,6.9-5c3.3-7.6,3-16.3-1-23.7C454.2,385.1,450.5,380.9,446,377.6z
			 M411.8,401.3c-1.7-2.7-2-6-0.7-8.9s4-4.9,7.2-5.3c1.6-0.4,3.2-0.5,4.9-0.4l-8.5,18.6C413.5,404.1,412.6,402.8,411.8,401.3
			L411.8,401.3z M424.5,435c1.7,2.7,2,6,0.7,8.9s-4,4.9-7.2,5.3c-1.6,0.4-3.2,0.5-4.9,0.4l8.5-18.6
			C422.8,432.2,423.8,433.5,424.5,435L424.5,435z"/>
	</g>
</g>
</svg>
