<?xml version="1.0" encoding="utf-8"?>
<!-- Generator: Adobe Illustrator 23.0.0, SVG Export Plug-In . SVG Version: 6.00 Build 0)  -->
<svg version="1.1" id="Layer_1" xmlns="http://www.w3.org/2000/svg" xmlns:xlink="http://www.w3.org/1999/xlink" x="0px" y="0px"
	 viewBox="0 0 512 512" style="enable-background:new 0 0 512 512;" xml:space="preserve">
<style type="text/css">
	.st0{fill:#FFB357;}
	.st1{fill:#78B9EB;}
	.st2{fill:#FFEC80;}
	.st3{fill:#006DF0;}
</style>
<g>
	<g>
		<g>
			<path class="st0" d="M16,48h480v32H16V48z"/>
			<path class="st1" d="M48,80h416l0,0v300c0,11-9,20-20,20H68c-11,0-20-9-20-20V80L48,80z"/>
			<circle class="st0" cx="256" cy="448" r="16"/>
		</g>
		<path class="st2" d="M392,224H272V104C338.3,104,392,157.7,392,224z"/>
		<path class="st0" d="M240,136v120l-84.9,84.9c-46.9-46.9-46.9-122.8,0-169.7C177.7,148.6,208.2,136,240,136z"/>
		<path class="st3" d="M360,256c0,66.3-53.7,120-120,120c-31.8,0-62.3-12.6-84.8-35.1L240,256H360z"/>
	</g>
	<g>
		<path d="M496,40H16c-4.4,0-8,3.6-8,8v32c0,4.4,3.6,8,8,8h24v292c0,15.5,12.5,28,28,28h180v17.4c-12.5,4.4-19,18.1-14.6,30.6
			c4.4,12.5,18.1,19,30.6,14.6c12.5-4.4,19-18.1,14.6-30.6c-2.4-6.8-7.8-12.2-14.6-14.6V408h180c15.5,0,28-12.5,28-28V88h24
			c4.4,0,8-3.6,8-8V48C504,43.6,500.4,40,496,40z M256,456c-4.4,0-8-3.6-8-8s3.6-8,8-8s8,3.6,8,8C264,452.4,260.4,456,256,456z
			 M456,380c0,6.6-5.4,12-12,12H68c-6.6,0-12-5.4-12-12V88h400V380z M488,72H24V56h464V72z"/>
		<path d="M272,96c-4.4,0-8,3.6-8,8v120c0,4.4,3.6,8,8,8h120c4.4,0,8-3.6,8-8C399.9,153.3,342.7,96.1,272,96z M280,216V112.3
			c55.5,4.1,99.7,48.2,103.7,103.7H280z"/>
		<path d="M240,384c70.7-0.1,127.9-57.3,128-128c0-4.4-3.6-8-8-8H248V136c0-4.4-3.6-8-8-8c-70.7,0-128,57.3-128,128
			S169.3,384,240,384z M351.7,264c-4.4,61.7-58,108.1-119.7,103.7c-24.1-1.7-47.1-11.2-65.3-27.1l76.7-76.7H351.7z M232,144.3v108.4
			l-76.7,76.7c-40.5-46.8-35.4-117.5,11.3-158C184.9,155.5,207.9,146,232,144.3L232,144.3z"/>
	</g>
</g>
</svg>
