<?xml version="1.0" encoding="iso-8859-1"?>
<!-- Generator: Adobe Illustrator 19.0.0, SVG Export Plug-In . SVG Version: 6.00 Build 0)  -->
<svg version="1.1" id="Capa_1" xmlns="http://www.w3.org/2000/svg" xmlns:xlink="http://www.w3.org/1999/xlink" x="0px" y="0px"
	 viewBox="0 0 511.998 511.998" style="enable-background:new 0 0 511.998 511.998;" xml:space="preserve">
<path style="fill:#333F61;" d="M233.079,164.048c-15.621-11.721-31.075-23.712-46.884-35.178
	c-13.332-9.67-25.051,1.999-30.239,15.112c-5.189,13.116-1.319,25.864,1.546,38.929"/>
<path style="fill:#F56C6C;" d="M504.501,317.291v-0.52c0-27.966-20.692-46.234-46.35-51.734
	c-16.498-3.537-32.995-7.072-49.493-10.609c-65.489-14.038-126.08-45.228-175.579-90.382l0,0c-11.865-2.423-29.32-3.963-46.18,3.947
	c-23.164,10.868-21.591,28.497-45.324,42.995c-18.037,11.018-43.861,18.261-64.46,10.737c-8.623-3.149-14.622-9.583-21.375-15.476
	c-9.71-8.473-20.763-14.856-32.97-19.043l-1.271,0.572l-7.864,28.925c-3.764,13.847-5.672,28.135-5.672,42.485v58.101l6.519,35.039
	h481.005L504.501,317.291z"/>
<g>
	<path style="fill:#DB4D4D;" d="M453.092,273.82c0,16.337-11.704,30.322-27.774,33.186l-29.921,5.333
		c-16.069,2.864-27.774,16.849-27.774,33.186l0,0v3.587l128.024,2.597l8.855-34.419v-0.52c0-24.379-17.017-45.446-40.835-50.551
		l-10.146-2.175l-0.429,0.065L453.092,273.82L453.092,273.82z"/>
	<path style="fill:#DB4D4D;" d="M196.25,317.291l-0.013-0.134c-4.446-45.254-27.492-86.62-63.622-114.191l-1.909-1.457l-0.026-0.011
		c-26.977,11.155-59.135,6.415-81.902-14.773l-6.67-7.738c-5.902-6.847-17.048-4.316-19.42,4.409l-9.055,33.307
		c-3.764,13.847-5.672,28.135-5.672,42.485v58.101v11.943L196.25,317.291z"/>
</g>
<path style="fill:#BC4444;" d="M79.141,317.291V259.19c0-14.351,1.907-28.638,5.672-42.485l2.868-10.552
	c-14.089-2.501-27.644-8.949-38.902-19.426l-6.67-7.738c-5.902-6.847-17.048-4.316-19.42,4.409l-9.055,33.307
	c-3.764,13.847-5.672,28.135-5.672,42.485v58.101v11.943l71.178-4.515C79.141,324.719,79.141,317.291,79.141,317.291z"/>
<path style="fill:#E6E9ED;" d="M434.347,387.369c-54.92,0-109.84,0-164.76,0c-69.51,0-139.019,0-208.53,0
	c-11.545,0-22.504-0.17-32.816-6.685c-22.92-14.479-20.278-39.925-20.278-63.393c61.181,0,122.362,0,183.543,0
	c5.193,0,10.099-0.071,14.667,3.115c7.109,4.958,5.849,11.227,7.988,18.374c2.219,7.415,10.066,9.933,17.095,9.824h224.79
	c13.477-0.207,23.525-8.188,29.736-19.564c4.345-7.96,10.62-9.177,18.72-11.749l-1.351,23.912
	C491.692,369.132,464.513,387.369,434.347,387.369z"/>
<path style="fill:#CFD2DC;" d="M79.934,343.9v-26.609H7.963V343.9c0,24.007,19.444,43.469,43.43,43.469h71.971
	C99.378,387.369,79.934,367.907,79.934,343.9z"/>
<path style="fill:#333F61;" d="M123.31,346.743H8.066c1.465,22.68,20.297,40.625,43.328,40.625h112.505
	C163.902,365.245,145.448,346.743,123.31,346.743z"/>
<path style="fill:#253551;" d="M80.088,346.743H8.117c1.465,22.68,20.297,40.625,43.328,40.625h71.971
	C100.385,387.369,81.553,369.424,80.088,346.743z"/>
<g>
	<path style="fill:#AF3838;" d="M288.709,249.922c13.892,6.674,28.237,14.787,44.163,13.375
		c13.935-1.236,26.687-8.727,34.751-20.118l0.001-0.003c-49.709-16.682-95.566-43.572-134.544-79.128
		c-18.69-18.346-44.962-13.921-61.724,4.028C196.599,188.805,250.91,231.762,288.709,249.922z"/>
	<path style="fill:#AF3838;" d="M42.11,201.149c2.77,2.377,5.54,4.755,8.31,7.131c31.86,22.977,76.662,21.626,107.081-3.21
		l15.359-16.448c16.029-17.165,42.868-18.242,60.218-2.415l0,0c19.744,18.01,42.081,24.211,65.955,26.056
		c-23.56-13.587-45.688-29.729-65.955-48.217l0,0c-14.484-13.213-36.817-14.825-53.022-3.767
		c-8.626,5.886-15.479,15.051-22.556,22.63c-28.994,31.05-77.626,32.756-108.722,3.816c-2.718-3.154-5.418-7.36-8.917-9.699
		c-6.297-4.209-15.16-1.037-17.173,6.37l-1.191,4.382C30.204,191.889,39.213,197.789,42.11,201.149z"/>
</g>
<path d="M511.994,316.771c0-27.729-19.665-52.07-46.757-57.878l-27.604-5.917c-4.043-0.862-8.03,1.709-8.897,5.757
	c-0.867,4.046,1.709,8.03,5.757,8.897l11.108,2.381v3.81c0,12.724-9.083,23.579-21.595,25.809l-29.922,5.333
	c-18.207,3.245-31.783,18.1-33.709,36.147H231.256c-0.039,0-0.077,0-0.116,0.001c-3.858,0.069-7.006-0.818-8.621-2.407
	c-0.603-0.594-1.407-1.659-1.407-4.029c0-11.366-7.661-20.97-18.085-23.931c-5.542-41.854-26.534-80.446-58.558-107.824
	c6.645-3.953,12.856-8.872,18.399-14.785c0.028-0.029,0.057-0.056,0.084-0.086c0.009-0.009,0.018-0.018,0.027-0.028l9.067-9.71
	c29.151,23.685,77.946,61.319,113.418,78.36l0,0c7.806,3.75,15.118,7.081,21.732,9.902c21.667,9.236,47.669,3.115,63.067-14.651
	c9.706,3.114,19.545,5.847,29.493,8.183c4.028,0.949,8.06-1.553,9.008-5.582c2.071-8.816-8.049-9.304-13.858-10.759
	c-6.996-1.751-13.875-3.982-20.701-6.299c-9.054-3.074-18.174-7.793-27.437-10.089c-47.734-15.116-158.5-106.323-158.5-106.323
	c-16.838-12.633-34.311,6.396-39.771,21.543c-4.655,12.912-2.004,25.081,0.815,37.94c-26.266,25.196-68.066,25.881-95.131,0.976
	l-6.393-7.418c-4.542-5.27-11.58-7.592-18.362-6.051c-15.684,3.556-17.317,25.72-20.8,38.532
	c-2.892,10.639-17.474,60.105-0.66,60.105c9.513,0,7.459-12.423,7.896-18.526c0.713-9.96,2.387-19.85,5.006-29.487l9.055-33.307
	c0.539-1.985,2.149-2.552,2.816-2.702c0.666-0.15,2.358-0.334,3.698,1.22l6.67,7.739c0.18,0.208,0.371,0.407,0.571,0.593
	c23.764,22.116,57.015,27.857,85.728,17.756c31.445,24.546,52.397,60.494,58.366,99.829H15.456v-15.105
	c0-10.559-13.824-8.818-14.986,0.575c-0.77,6.225,0,13.064,0,19.332c0,9.767,0,19.533,0,29.3c0,28.1,22.844,50.962,50.923,50.962
	c34.697,0,69.392,0,104.089,0c20.431,0,40.862,0,61.293,0c4.477,0,9.235,0.472,13.693,0c10.727-1.134,10.335-13.918-0.215-14.986
	c-19.402-1.965-39.927,0-59.448,0c-3.607-22.986-23.53-40.625-47.495-40.625H15.456v-14.467c53.036,0,106.071,0,159.107,0
	c7.226,0,14.453,0,21.679,0c0.003,0,0.006,0,0.009,0c5.445,0,9.876,4.438,9.876,9.892c0,5.835,2.033,10.92,5.878,14.707
	c4.509,4.44,11.37,6.813,19.304,6.714h224.737c0.039,0,0.077,0,0.115-0.001c16.312-0.25,30.848-10.174,37.034-25.28
	c0.591-1.444,1.754-2.559,3.211-3.087l-0.664,11.761c-10.666,24.728-34.938,39.953-61.592,40.386c-9.065,0.148-18.143,0-27.209,0
	c-36.626,0-73.251,0-109.877,0c-10.001,0-20.001,0-30.003,0c-4.138,0-7.493,3.355-7.493,7.493c0,9.666,13.204,7.493,19.427,7.493
	c13.015,0,26.03,0,39.045,0c31.276,0,62.551,0,93.827,0c7.494,0,14.987,0,22.481,0c33.343,0,63.07-19.946,75.734-50.815
	c0.316-0.771,0.502-1.59,0.548-2.421l1.352-23.912c0.003-0.059-0.003-0.116-0.001-0.175
	C511.999,317.284,512.003,317.028,511.994,316.771z M354.514,246.507c-11.314,9.525-27.398,12.271-41.441,6.285
	c-6.409-2.732-13.514-5.97-21.119-9.624l0,0c-34.43-16.541-83.952-55.025-109.266-75.521c11.469-8.769,27.319-9.642,39.657-2.286
	l2.025,1.52l-8.4,0.401c-4.134,0.198-7.325,3.709-7.127,7.842c0.195,4.084,3.778,7.307,7.842,7.127l20.322-0.97l1.626,17.211
	c0.381,4.025,4.144,7.131,8.164,6.755c4.12-0.39,7.144-4.044,6.755-8.164l-0.628-6.65c9.217,7.098,18.716,13.761,28.491,19.964
	l-4.168,0.808c-4.062,0.788-6.718,4.72-5.929,8.783c0.77,3.972,4.81,6.703,8.783,5.929l15.362-2.978l3.255,16.692
	c0.774,3.972,4.817,6.697,8.789,5.92c4.061-0.791,6.713-4.727,5.92-8.789l-1.762-9.041c12.558,6.442,25.512,12.18,38.816,17.244
	c0.872,0.333,1.741,0.671,2.616,0.998C353.567,246.141,354.037,246.331,354.514,246.507z M173.103,133.103
	c1.802-1.408,4.339-1.433,6.169-0.059l16.256,12.197c-10.206,1.826-19.535,6.89-26.817,14.687l-2.833,3.033
	c-0.003,0.003-0.005,0.006-0.008,0.009l-4.105,4.396l-0.383-1.743C158.725,153.5,163.326,140.734,173.103,133.103z M155.552,379.876
	H51.393c-15.605,0-28.914-10.013-33.866-23.956l105.784-1.683C138.986,354.237,152.151,365.203,155.552,379.876z M492.084,313.372
	c-5.801,1.842-10.45,6.13-12.758,11.765c-3.902,9.529-13.061,15.794-23.341,15.974h-80.489c1.822-10.749,10.18-19.427,21.214-21.393
	l29.922-5.333c19.673-3.507,33.951-20.566,33.951-40.563v-0.597l1.511,0.324c18.625,3.992,32.538,19.72,34.63,38.351
	L492.084,313.372z"/>
<g>
</g>
<g>
</g>
<g>
</g>
<g>
</g>
<g>
</g>
<g>
</g>
<g>
</g>
<g>
</g>
<g>
</g>
<g>
</g>
<g>
</g>
<g>
</g>
<g>
</g>
<g>
</g>
<g>
</g>
</svg>
