<?xml version="1.0" encoding="iso-8859-1"?>
<!-- Generator: Adobe Illustrator 19.0.0, SVG Export Plug-In . SVG Version: 6.00 Build 0)  -->
<svg version="1.1" id="Capa_1" xmlns="http://www.w3.org/2000/svg" xmlns:xlink="http://www.w3.org/1999/xlink" x="0px" y="0px"
	 viewBox="0 0 511.99 511.99" style="enable-background:new 0 0 511.99 511.99;" xml:space="preserve">
<g>
	<g>
		<path d="M260.278,185.585c-71.776-147.04-232.192-142.144-257.504-76c-19.712,50.656,65.44,170.976,261.056,83.744
			C263.126,192.625,260.982,186.993,260.278,185.585z"/>
	</g>
</g>
<g>
	<g>
		<path d="M362.294,34.321c-38.016-14.784-108.352,42.24-68.256,141.408c0.704,0.704,2.144,3.52,2.144,4.224
			C406.614,130.705,391.158,45.585,362.294,34.321z"/>
	</g>
</g>
<g>
	<g>
		<path d="M211.062,403.249c-12.704-28.8-19.712-59.776-20.416-90.752c-20.416,31.68-35.904,64.032-46.464,87.264
			c-0.672,1.408-0.672,2.112-1.376,3.52c-3.52,9.152-7.072,16.192-9.152,22.528c-2.816,7.008,0.704,15.488,8.448,18.272
			c5.6,2.144,13.344,4.928,22.528,8.448c1.376,0.704,2.112,0.704,3.52,1.376c24.64,8.448,58.4,17.6,95.008,23.936
			C241.334,456.753,223.734,431.377,211.062,403.249z"/>
	</g>
</g>
<g>
	<g>
		<path d="M499.478,273.809c-16.864-37.28-47.136-64.704-83.008-77.376c-3.52-1.376-7.04-2.112-11.264-2.112
			c-18.304,0-36.576,15.488-37.984,34.496c-2.816,32.352,3.52,64.704,17.568,96.384c14.048,30.976,33.76,56.992,58.432,76.672
			c6.336,4.928,14.784,7.04,22.496,7.04c14.816,0,28.864-7.712,34.496-21.088C515.67,353.297,516.406,311.793,499.478,273.809z"/>
	</g>
</g>
<g>
	<g>
		<path d="M415.766,439.153c-30.944-23.904-55.552-55.584-72.48-94.272c-17.568-39.424-24.608-79.52-21.088-118.944
			c0.672-11.232,4.224-21.792,9.12-30.944c-0.672,0-2.112,0.672-2.816,0.672c-1.408,0.704-3.52,0.704-4.928,1.408
			c-10.56,2.816-21.088,7.744-30.24,12.672c-4.896,2.848-9.12,5.664-14.048,8.48c-23.904,16.192-43.616,44.32-46.432,73.888
			c-2.848,31.648,2.816,64.032,16.16,94.976c13.376,30.272,33.056,54.912,56.992,73.888c14.784,11.968,40.8,19.008,62.656,19.008
			c23.904,0,49.216-9.152,69.632-21.824c0,0,0.704,0,0.704-0.672c1.376-0.704,2.816-2.144,4.224-2.848
			c0.672-0.704,1.376-1.376,2.08-1.376C434.038,450.417,424.214,445.521,415.766,439.153z"/>
	</g>
</g>
<g>
</g>
<g>
</g>
<g>
</g>
<g>
</g>
<g>
</g>
<g>
</g>
<g>
</g>
<g>
</g>
<g>
</g>
<g>
</g>
<g>
</g>
<g>
</g>
<g>
</g>
<g>
</g>
<g>
</g>
</svg>
