<?xml version="1.0" encoding="iso-8859-1"?>
<!-- Generator: Adobe Illustrator 19.0.0, SVG Export Plug-In . SVG Version: 6.00 Build 0)  -->
<svg version="1.1" id="Capa_1" xmlns="http://www.w3.org/2000/svg" xmlns:xlink="http://www.w3.org/1999/xlink" x="0px" y="0px"
	 viewBox="0 0 512 512" style="enable-background:new 0 0 512 512;" xml:space="preserve">
<g>
	<g>
		<path d="M348.952,6.656C345.976,2.464,341.144,0,335.992,0h-160c-6.88,0-12.992,4.416-15.168,10.944l-160,480
			c-1.632,4.864-0.8,10.24,2.176,14.4C6.008,509.536,10.84,512,15.992,512h102.336c41.376,0,77.984-26.368,91.072-65.632
			L351.192,21.056C352.792,16.192,351.992,10.816,348.952,6.656z"/>
	</g>
</g>
<g>
	<g>
		<path d="M511.192,490.944L369.752,66.592l-96.864,290.624l29.728,89.184c13.056,39.232,49.664,65.6,91.04,65.6h102.336
			c5.152,0,9.984-2.464,12.96-6.656C511.992,501.184,512.792,495.808,511.192,490.944z"/>
	</g>
</g>
<g>
</g>
<g>
</g>
<g>
</g>
<g>
</g>
<g>
</g>
<g>
</g>
<g>
</g>
<g>
</g>
<g>
</g>
<g>
</g>
<g>
</g>
<g>
</g>
<g>
</g>
<g>
</g>
<g>
</g>
</svg>
