<?xml version="1.0" encoding="utf-8"?>
<!-- Generator: Adobe Illustrator 23.0.0, SVG Export Plug-In . SVG Version: 6.00 Build 0)  -->
<svg version="1.1" xmlns="http://www.w3.org/2000/svg" xmlns:xlink="http://www.w3.org/1999/xlink" x="0px" y="0px"
	 viewBox="0 0 500 500" style="enable-background:new 0 0 500 500;" xml:space="preserve">
<style type="text/css">
	.st0{fill:#EBEBEB;}
	.st1{fill:#E6E6E6;}
	.st2{fill:#F0F0F0;}
	.st3{fill:#F5F5F5;}
	.st4{fill:#FFFFFF;}
	.st5{fill:#FAFAFA;}
	.st6{display:none;}
	.st7{display:inline;}
	.st8{fill:#407BFF;}
	.st9{opacity:0.9;fill:#FFFFFF;}
	.st10{fill:#FF8B7B;}
	.st11{opacity:0.2;}
	.st12{fill:#263238;}
	.st13{opacity:0.6;}
	.st14{opacity:0.3;}
	.st15{fill:#FF5652;}
	.st16{opacity:0.1;}
	.st17{opacity:0.4;fill:#407BFF;}
	.st18{fill:#B55B52;}
	.st19{fill:#A02724;}
</style>
<g id="Background_Complete">
	<g>
		<rect y="382.4" class="st0" width="500" height="0.25"/>
		<rect x="416.78" y="398.49" class="st0" width="33.12" height="0.25"/>
		<rect x="322.53" y="401.21" class="st0" width="8.69" height="0.25"/>
		<rect x="396.59" y="389.21" class="st0" width="19.19" height="0.25"/>
		<rect x="52.46" y="390.89" class="st0" width="43.19" height="0.25"/>
		<rect x="104.56" y="390.89" class="st0" width="6.33" height="0.25"/>
		<rect x="131.47" y="395.11" class="st0" width="93.68" height="0.25"/>
		<path class="st0" d="M237.01,337.8H43.92c-3.15,0-5.71-2.56-5.71-5.71V60.66c0-3.15,2.56-5.71,5.71-5.71h193.1
			c3.15,0,5.71,2.56,5.71,5.71v271.43C242.72,335.24,240.16,337.8,237.01,337.8z M43.92,55.2c-3.01,0-5.46,2.45-5.46,5.46v271.43
			c0,3.01,2.45,5.46,5.46,5.46h193.1c3.01,0,5.46-2.45,5.46-5.46V60.66c0-3.01-2.45-5.46-5.46-5.46H43.92z"/>
		<path class="st0" d="M453.31,337.8h-193.1c-3.15,0-5.71-2.56-5.71-5.71V60.66c0-3.15,2.56-5.71,5.71-5.71h193.1
			c3.15,0,5.71,2.56,5.71,5.71v271.43C459.02,335.24,456.46,337.8,453.31,337.8z M260.21,55.2c-3.01,0-5.46,2.45-5.46,5.46v271.43
			c0,3.01,2.45,5.46,5.46,5.46h193.1c3.01,0,5.46-2.45,5.46-5.46V60.66c0-3.01-2.45-5.46-5.46-5.46H260.21z"/>
	</g>
	<g>
		<g>
			<rect x="358.99" y="130.01" class="st1" width="14.17" height="44.11"/>
			<polygon class="st2" points="411.57,174.12 364.55,174.12 357.45,122.49 404.47,122.49 			"/>
			<polygon class="st3" points="416.66,174.12 368.1,174.12 361,122.49 409.56,122.49 			"/>
			<polygon class="st4" points="371.61,170.05 365.63,126.56 406.05,126.56 412.04,170.05 			"/>
			<path class="st3" d="M379.6,156.88l-2.25-16.33c-0.25-1.83,1.17-3.46,3.01-3.46h14.69c1.52,0,2.81,1.12,3.01,2.63l2.25,16.33
				c0.25,1.83-1.17,3.46-3.01,3.46h-14.69C381.09,159.51,379.8,158.39,379.6,156.88z"/>
		</g>
		<g>
			<rect x="73.16" y="81.68" class="st1" width="211.79" height="130.65"/>
			<rect x="75.7" y="81.68" class="st2" width="214.69" height="130.65"/>
			<rect x="73.16" y="212.34" class="st1" width="211.79" height="10.11"/>
			<rect x="84.76" y="212.34" class="st2" width="214.69" height="10.11"/>
			
				<rect x="125.33" y="47.28" transform="matrix(-1.836970e-16 1 -1 -1.836970e-16 330.0519 -36.0317)" class="st5" width="115.42" height="199.45"/>
			<polygon class="st4" points="97.96,204.72 142.67,89.3 163.77,89.3 119.06,204.72 			"/>
			<polygon class="st4" points="123.6,204.72 168.31,89.3 176.53,89.3 131.82,204.72 			"/>
			<polygon class="st4" points="201.82,204.72 246.53,89.3 254.75,89.3 210.05,204.72 			"/>
			
				<rect x="224.57" y="146.53" transform="matrix(-1.836970e-16 1 -1 -1.836970e-16 429.2942 -135.2739)" class="st1" width="115.42" height="0.97"/>
		</g>
		<g>
			<g>
				<rect x="400.66" y="174.12" class="st1" width="44.84" height="208.28"/>
				<polygon class="st2" points="440.99,382.4 445.5,382.4 445.5,369.57 436.26,369.57 				"/>
				<rect x="322.09" y="174.12" class="st1" width="44.84" height="208.28"/>
				<rect x="362.99" y="174.12" class="st2" width="82.51" height="200.4"/>
				<polygon class="st2" points="367.5,382.4 362.99,382.4 362.99,369.57 372.23,369.57 				"/>
				<rect x="366.49" y="177.79" class="st1" width="75.51" height="94.54"/>
				<path class="st2" d="M412.42,185.15h-16.35c-7.1,0-13.89-2.92-18.78-8.08h0h53.91l0,0
					C426.32,182.23,419.53,185.15,412.42,185.15z"/>
				<rect x="366.49" y="276.16" class="st1" width="75.51" height="94.54"/>
				<path class="st2" d="M412.42,283.52h-16.35c-7.1,0-13.89-2.92-18.78-8.08h0h53.91l0,0C426.32,280.6,419.53,283.52,412.42,283.52
					z"/>
			</g>
		</g>
		<g>
			<polygon class="st1" points="129.5,239.89 204.12,239.89 214.94,283.96 140.31,283.96 			"/>
			<polygon class="st1" points="140.31,283.96 140.62,286.39 215.24,286.39 214.94,283.96 			"/>
			<polygon class="st2" points="131.8,239.89 206.42,239.89 217.24,283.96 142.61,283.96 			"/>
			<polygon class="st4" points="144.19,281.94 134.36,241.9 204.84,241.9 214.67,281.94 			"/>
			<polygon class="st2" points="162.06,283.96 162.36,286.39 244.53,286.39 244.23,283.96 			"/>
		</g>
		<g>
			<rect x="254.34" y="286.39" class="st1" width="8.94" height="96"/>
			<rect x="259.9" y="286.39" class="st2" width="6.21" height="96"/>
			
				<rect x="152.82" y="286.39" transform="matrix(-1 -1.224647e-16 1.224647e-16 -1 420.8558 583.7697)" class="st2" width="115.21" height="10.99"/>
			<rect x="139.88" y="297.38" class="st1" width="8.94" height="85.01"/>
			<rect x="145.43" y="297.38" class="st2" width="6.21" height="85.01"/>
			<rect x="83.29" y="297.38" class="st1" width="8.94" height="85.01"/>
			<rect x="88.85" y="297.38" class="st2" width="6.21" height="85.01"/>
			<rect x="197.76" y="297.38" class="st1" width="8.94" height="85.01"/>
			<rect x="203.31" y="297.38" class="st2" width="6.21" height="85.01"/>
			<rect x="83.29" y="286.39" class="st1" width="69.53" height="10.99"/>
		</g>
		<g>
			<path class="st2" d="M292.34,382.4h-2.18l-6.22-30.64l-1.09-5.37L276.07,313h-26l-14.09,69.4h-2.18l14.36-70.68
				c0.1-0.5,0.53-0.85,1.05-0.85h27.74c0.5,0,0.94,0.35,1.04,0.85l5.96,29.33l1.09,5.36L292.34,382.4z"/>
			<path class="st2" d="M334.09,382.4h-2.18l-14.1-69.4h-26l-6.78,33.41l-1.08,5.35l-6.22,30.64h-2.18l7.31-36.01l1.08-5.34
				l5.96-29.33c0.1-0.5,0.54-0.85,1.05-0.85h27.74c0.51,0,0.94,0.35,1.05,0.85L334.09,382.4z"/>
			<path class="st2" d="M269.99,311.93h47.78c9.12,0,14.18-6.2,16.75-16.42l1.27-5.84c1.04-4.8-0.74-9.89-4.79-12.67
				c-1.96-1.35-4.34-2.14-6.9-2.14h-29.95c-6.21,0-7.84,1.48-12.13,10.82C277.74,295.03,269.99,311.93,269.99,311.93z"/>
			<path class="st2" d="M249.29,302.77h46.76v9.16h-50.92c-1.32,0-2.39-1.07-2.39-2.39v-0.22
				C242.75,305.7,245.68,302.77,249.29,302.77z"/>
		</g>
	</g>
</g>
<g id="Background_Simple" class="st6">
	<g class="st7">
		<path class="st8" d="M284.9,192.57c-57.12-38.68-143.58-161.85-210.1-54.6c-47.77,77.02,86.69,156.67,143.69,181.61
			c72.92,31.91,203.33,20.06,221.34-77.58c7.21-39.09-11.21-54.75-46.34-47.61C352.26,202.77,326.97,221.06,284.9,192.57z"/>
		<path class="st9" d="M284.9,192.57c-57.12-38.68-143.58-161.85-210.1-54.6c-47.77,77.02,86.69,156.67,143.69,181.61
			c72.92,31.91,203.33,20.06,221.34-77.58c7.21-39.09-11.21-54.75-46.34-47.61C352.26,202.77,326.97,221.06,284.9,192.57z"/>
	</g>
</g>
<g id="Shadow_1_">
	<ellipse id="_x3C_Path_x3E__7_" class="st3" cx="250" cy="416.24" rx="193.89" ry="11.32"/>
</g>
<g id="Character_Female">
	<g>
		<g>
			<g>
				<polygon class="st10" points="203.03,384.25 196.63,388.37 185.03,374.88 191.43,370.76 				"/>
				<polygon class="st11" points="191.44,370.76 185.04,374.88 191.02,381.84 197.42,377.71 				"/>
			</g>
			<g>
				<polygon class="st10" points="154.12,406.25 146.76,406.97 139.11,389.47 146.47,388.75 				"/>
				<polygon class="st11" points="139.12,389.48 143.06,398.5 150.73,398.5 146.47,388.76 				"/>
			</g>
			<path class="st12" d="M98.23,170.01c-3.7,0.34-3.8-5.94-10.3-2.99c-8.26,3.76-5.47,9.59-11.92,9.34
				c-6.44-0.25-10.78,4.79-9.33,8.55c1.44,3.76,3.67,7.29-0.89,8.8c-4.56,1.51-7.67,2.84-7,6.62c0.67,3.78,3.89,5.3-1.56,7.71
				c-5.44,2.41-4.89,12.83,0.44,12.84s0.22,5.21,5,10.48c4.78,5.27,12.05,6.05,15.08,3.4c3.03-2.65,6.41-4.76,12.11-0.76
				c5.7,4,15.34,5,14.91-1.33c-0.43-6.33-5.97-10.5-0.76-13.81c5.21-3.31,12.01-4.93,9.87-11.34c-1.35-4.05-5.43-7.48-2.13-10.48
				c5.35-4.86,5.38-15.86-1.18-18.65C106.77,176.78,110.44,168.9,98.23,170.01z"/>
			<path class="st10" d="M91.11,219.42c-0.18,2.97-0.56,5.68-1,8.49c-0.47,2.78-1.08,5.55-1.8,8.3c-0.72,2.75-1.61,5.48-2.72,8.16
				c-0.54,1.34-1.16,2.67-1.82,3.98c-0.33,0.66-0.69,1.31-1.06,1.95c-0.18,0.32-0.38,0.64-0.57,0.96l-0.29,0.48
				c-0.17,0.25-0.39,0.6-0.65,0.88c-0.51,0.6-1.23,1.13-1.97,1.47c-0.75,0.36-1.5,0.49-2.16,0.55c-1.33,0.09-2.36-0.16-3.24-0.44
				c-1.76-0.58-3.11-1.35-4.4-2.16c-2.54-1.63-4.73-3.42-6.83-5.29c-4.16-3.79-7.93-7.77-11.46-12.07l2.8-2.64
				c1.99,1.76,4.03,3.55,6.1,5.25c2.05,1.73,4.13,3.4,6.25,4.96c2.11,1.56,4.25,3.08,6.4,4.23c1.06,0.57,2.15,1.04,3,1.23
				c0.42,0.11,0.75,0.09,0.78,0.07c0.01-0.01-0.06-0.01-0.2,0.04c-0.13,0.04-0.28,0.17-0.36,0.24c-0.02,0.03-0.04,0.04-0.05,0.05
				c0,0-0.04,0.07-0.01,0.01l0.22-0.4c0.14-0.27,0.3-0.53,0.43-0.81c0.28-0.55,0.55-1.11,0.8-1.68c0.51-1.14,0.98-2.31,1.4-3.51
				c0.84-2.4,1.54-4.88,2.16-7.4c0.61-2.52,1.09-5.09,1.5-7.68c0.43-2.56,0.75-5.25,0.98-7.7L91.11,219.42z"/>
			<g>
				<path class="st8" d="M96.92,220.36c-0.4,2.42-2.41,6.99-4.03,10.4c-1.18,2.46-2.14,4.31-2.14,4.31l-1.4-0.62l-11.59-5.16
					c0.88-6.25,2.31-13.05,9.2-16.07C91.29,211.32,97.63,216.04,96.92,220.36z"/>
				<path class="st13" d="M96.92,220.36c-0.4,2.42-2.41,6.99-4.03,10.4c-1.18,2.46-2.14,4.31-2.14,4.31l-1.4-0.62l-11.59-5.16
					c0.88-6.25,2.31-13.05,9.2-16.07C91.29,211.32,97.63,216.04,96.92,220.36z"/>
			</g>
			<path class="st14" d="M92.89,230.76c-1.18,2.46-2.14,4.31-2.14,4.31l-1.4-0.62c0.19-2.47,0.68-6.36,2.02-8.11
				C92.2,227.61,92.66,229.17,92.89,230.76z"/>
			<path class="st10" d="M54.37,234.29l0.92-6.73l-7.56,2.48c0,0,1.21,4.08,3.9,5.74L54.37,234.29z"/>
			<polygon class="st10" points="51.87,221.81 46.6,224.7 47.74,230.04 55.29,227.56 			"/>
			<path class="st12" d="M194.27,386.35l6.95-4.98c0.25-0.18,0.58-0.15,0.8,0.07l4.73,4.93c0.49,0.51,0.39,1.4-0.2,1.81
				c-2.45,1.7-3.72,2.39-6.78,4.58c-1.88,1.35-5.84,4.61-8.44,6.47c-2.54,1.82-4.58-0.61-3.66-1.61c4.1-4.52,5.19-7.6,5.84-10.14
				C193.63,387.02,193.9,386.62,194.27,386.35z"/>
			<path class="st12" d="M145.79,404.7h9.03c0.33,0,0.63,0.23,0.71,0.55l1.96,7.14c0.2,0.74-0.34,1.42-1.1,1.43
				c-3.18,0.03-4.69,0.01-8.66,0.01c-2.44,0-8.76,0-12.14,0c-3.3,0-3.99-3.34-2.62-3.64c6.12-1.35,9.65-3.22,11.54-5
				C144.85,404.87,145.31,404.7,145.79,404.7z"/>
			<g>
				<g>
					<path class="st8" d="M132.05,247.46c-5.69,1.8-17.78,5.62-29.47,9.32c-20.4-40.38-17.49-42.52-17.49-42.52s4.71-2.69,9.61-4.93
						c0.74-0.34,1.49-0.67,2.23-0.98c4.24-1.78,8.35-2.91,13.38-4.24c0.67-0.18,1.34-0.34,2.01-0.5c5.73-1.32,11.03-1.81,11.03-1.81
						c0.44,5.59,0.88,10.32,1.36,14.43c0.62,5.36,1.29,9.65,2.04,13.36C128.16,236.49,129.85,241.39,132.05,247.46z"/>
					<path class="st13" d="M132.05,247.46c-5.69,1.8-17.78,5.62-29.47,9.32c-20.4-40.38-17.49-42.52-17.49-42.52
						s4.71-2.69,9.61-4.93c0.74-0.34,1.49-0.67,2.23-0.98c4.24-1.78,8.35-2.91,13.38-4.24c0.67-0.18,1.34-0.34,2.01-0.5
						c5.73-1.32,11.03-1.81,11.03-1.81c0.44,5.59,0.88,10.32,1.36,14.43c0.62,5.36,1.29,9.65,2.04,13.36
						C128.16,236.49,129.85,241.39,132.05,247.46z"/>
				</g>
				<path class="st14" d="M126.75,229.59c-2.83-4.02-5.54-13.31-4.84-16.8l2.8,3.44C125.33,221.59,126,225.88,126.75,229.59z"/>
			</g>
			<path class="st4" d="M103.63,221.8c0,0,7.44-1.61,9.83,1.61c3.28-3.22,2.12-15.85,0.54-20.35c-1.25,0.11-3.67,1.04-3.67,1.04
				l-5.25,8.12L103.63,221.8z"/>
			<path class="st4" d="M103.63,221.8c0,0-5.03,1.12-5.53,5.21c-6.98-5.21-6.51-12.84-4.93-17.34c1.14-0.69,3.76-1.32,3.76-1.32
				l5.25,5.77L103.63,221.8z"/>
			<g>
				<path class="st10" d="M105.34,195.59c0.96,3.68,2.52,7.32,4.97,8.52c0,0,2.31,6.62-6.69,17.69c-9.42-6.71-6.69-13.45-6.69-13.45
					c4.44-2.67,3.19-6.19,1.29-9.27l2.61-4.19C101.99,193.04,104.79,193.48,105.34,195.59z"/>
				<path class="st11" d="M105.34,195.59c-0.55-2.11-3.35-2.55-4.51-0.7l-0.84,1.34c0,0.01,0,0.01,0,0.01c0.07,0.89,0.11,1.62,0.1,2
					c-0.08,2.6,3.57,2.48,6.54,1.23C106.11,198.26,105.68,196.93,105.34,195.59z"/>
			</g>
			<path class="st10" d="M87.25,185.54c2.6,7.09,3.54,10.15,8.3,12.77c7.15,3.94,15.3-0.79,14.87-8.52
				c-0.38-6.95-4.56-17.39-12.49-18.16C90.12,170.87,84.66,178.44,87.25,185.54z"/>
			<path class="st12" d="M105.64,174.88c-2.43-2.35-4.98-5.08-9.9-4.55c-5.42,0.59-7.56,3.87-7.56,3.87l-4.66,10.19
				c0,0,2.89,13.12,7.66,6.99c2.74-3.53,2.86-8.87,1.79-12.88c1.52-0.15,3.52-0.69,5.52-1.28c2.2,0.82,4.67,0.83,6.5-0.86
				c0.4-0.37,0.69-0.66,0.9-0.88l0.16-0.19C106.63,174.59,106.18,174.66,105.64,174.88z M99.34,176.96c1.94-0.58,3.82-1.16,5.2-1.39
				C103.93,176.35,102.15,177.58,99.34,176.96z"/>
			<path class="st10" d="M87.61,192.75c0.78,1.36,2.12,2.22,3.37,2.54c1.88,0.47,2.76-1.22,2.2-2.97c-0.51-1.57-2.1-3.71-3.96-3.41
				C87.38,189.21,86.72,191.19,87.61,192.75z"/>
			<g>
				<path class="st8" d="M102.58,256.79c0,0-1.04,60.4,6.89,82.22c7.6,20.92,30.27,56.88,30.27,56.88l13.14-0.34
					c0,0-20.87-45.53-24.29-63.54c-5.68-29.87-4.42-82.05-4.42-82.05L102.58,256.79z"/>
				<path class="st14" d="M114.38,261.95l3.53-10.01l6.25-1.98c0,0-0.57,23.73,0.8,48.34C119.29,287.42,114.38,267.42,114.38,261.95
					z"/>
			</g>
			<polygon class="st12" points="137.89,396.56 154.12,396.15 153.18,391.16 135.46,392 			"/>
			<path class="st8" d="M109.04,254.84c0,0,20.49,46.9,33.74,73.58c10.7,21.56,44,50.48,44,50.48l9.13-6.33
				c0,0-25.05-34.26-32.44-48.87c-23.65-46.79-17.82-66.07-31.42-76.23L109.04,254.84z"/>
			<polygon class="st12" points="187.29,381.92 198.01,374.29 195.58,369.61 183.8,378.52 			"/>
			<path class="st12" d="M131.95,245.59l2.16,2.22c0.17,0.17-0.01,0.46-0.35,0.57l-30.91,9.78c-0.27,0.08-0.53,0.02-0.6-0.14
				l-1.1-2.55c-0.08-0.18,0.11-0.4,0.4-0.5l29.84-9.44C131.62,245.45,131.84,245.48,131.95,245.59z"/>
			<path class="st8" d="M128.99,250.2l0.8-0.25c0.16-0.05,0.25-0.17,0.21-0.27l-1.46-3.31c-0.04-0.1-0.21-0.13-0.37-0.08l-0.8,0.25
				c-0.16,0.05-0.25,0.17-0.21,0.27l1.46,3.31C128.67,250.21,128.83,250.25,128.99,250.2z"/>
			<path class="st8" d="M105.19,257.73l0.8-0.25c0.16-0.05,0.25-0.17,0.21-0.27l-1.46-3.31c-0.04-0.1-0.21-0.13-0.37-0.08l-0.8,0.25
				c-0.16,0.05-0.25,0.17-0.21,0.27l1.46,3.31C104.87,257.74,105.03,257.78,105.19,257.73z"/>
			<path class="st8" d="M117.09,253.96l0.8-0.25c0.16-0.05,0.25-0.17,0.21-0.27l-1.46-3.31c-0.04-0.1-0.21-0.13-0.37-0.08l-0.8,0.25
				c-0.16,0.05-0.25,0.17-0.21,0.27l1.46,3.31C116.77,253.98,116.93,254.01,117.09,253.96z"/>
			<path class="st12" d="M99.69,183.98c0.18,0.59,0.63,0.97,1.01,0.86s0.55-0.68,0.38-1.27c-0.18-0.59-0.63-0.97-1.01-0.86
				C99.69,182.82,99.52,183.39,99.69,183.98z"/>
			<path class="st12" d="M106.34,182c0.18,0.59,0.63,0.97,1.01,0.86c0.38-0.11,0.55-0.68,0.38-1.27c-0.18-0.59-0.63-0.97-1.01-0.86
				C106.34,180.84,106.17,181.41,106.34,182z"/>
			<path class="st12" d="M106.56,180.81l1.29-0.83C107.85,179.98,107.46,181.3,106.56,180.81z"/>
			<path class="st15" d="M104.68,183.53c0,0,1.75,2.24,3.22,3.13c-0.56,0.96-1.98,1.02-1.98,1.02L104.68,183.53z"/>
			<path class="st12" d="M103.92,190.9c0.05-0.04,0.08-0.12,0.06-0.19c-0.03-0.1-0.13-0.15-0.22-0.12
				c-2.57,0.77-4.33-0.68-4.34-0.69c-0.08-0.06-0.19-0.05-0.25,0.02c-0.06,0.08-0.05,0.19,0.02,0.25c0.08,0.07,1.91,1.59,4.68,0.76
				C103.89,190.92,103.91,190.91,103.92,190.9z"/>
			<path class="st12" d="M97.18,182.37c0.05-0.04,0.08-0.09,0.11-0.15c0.56-1.51,1.86-1.81,1.87-1.81c0.19-0.04,0.32-0.24,0.27-0.43
				c-0.04-0.19-0.24-0.32-0.43-0.27c-0.07,0.02-1.69,0.4-2.39,2.26c-0.07,0.19,0.02,0.39,0.21,0.46
				C96.95,182.47,97.08,182.44,97.18,182.37z"/>
			<path class="st12" d="M108.37,178.23c0.01-0.02,0.01-0.04,0.02-0.07c0.04-0.2-0.09-0.38-0.29-0.42
				c-1.96-0.38-3.13,0.81-3.18,0.86c-0.14,0.14-0.13,0.37,0.01,0.51c0.14,0.14,0.37,0.13,0.51-0.01c0.04-0.04,0.96-0.95,2.52-0.65
				C108.14,178.48,108.3,178.39,108.37,178.23z"/>
			<path class="st10" d="M127.83,208.86c1.19,0.9,2.19,1.72,3.23,2.63c1.02,0.89,2.03,1.8,3.02,2.73c1.95,1.88,3.83,3.84,5.61,5.91
				c1.79,2.06,3.45,4.23,4.99,6.53c0.4,0.56,0.75,1.17,1.12,1.75c0.37,0.58,0.74,1.17,1.07,1.79c0.34,0.62,0.68,1.18,1.03,1.86
				l0.53,1.11l0.43,1.12c1.04,3,1.27,5.96,1.27,8.8c-0.06,2.84-0.37,5.58-0.89,8.26c-0.52,2.68-1.19,5.28-1.97,7.85
				c-0.83,2.56-1.7,5.04-2.82,7.54l-3.62-1.34c0.62-2.4,1.21-4.92,1.65-7.41c0.48-2.49,0.85-4.98,1.07-7.46
				c0.21-2.48,0.32-4.93,0.16-7.3c-0.08-1.18-0.21-2.33-0.42-3.44c-0.22-1.1-0.54-2.14-0.91-3.08l-0.3-0.69l-0.35-0.63
				c-0.27-0.46-0.63-1.01-0.94-1.51c-0.31-0.52-0.66-1.01-1.02-1.51c-0.36-0.49-0.69-1-1.07-1.48c-1.46-1.96-3.1-3.82-4.75-5.67
				c-1.66-1.84-3.44-3.59-5.27-5.29c-0.9-0.86-1.83-1.7-2.77-2.51c-0.93-0.8-1.92-1.64-2.79-2.34L127.83,208.86z"/>
			<path class="st10" d="M141.92,263l-5.48,4.02l7.04,3.7c0,0,2.09-3.7,1.41-6.79L141.92,263z"/>
			<polygon class="st10" points="134.7,273.49 140.44,275.26 143.48,270.72 136.44,267.02 			"/>
			<g>
				<path class="st8" d="M123.35,201.8c3.83-0.17,11.36,9.24,11.36,9.24l-7.82,11.06c0,0-8.78-6.98-9.46-11.87
					C116.86,206.08,118.47,202.02,123.35,201.8z"/>
				<path class="st13" d="M123.35,201.8c3.83-0.17,11.36,9.24,11.36,9.24l-7.82,11.06c0,0-8.78-6.98-9.46-11.87
					C116.86,206.08,118.47,202.02,123.35,201.8z"/>
			</g>
			<path class="st8" d="M191.64,389.48c-0.04,0-0.08,0-0.12-0.01c-0.34-0.04-0.61-0.24-0.8-0.6c-0.14-0.27-0.08-0.49,0-0.62
				c0.49-0.84,3.23-0.98,3.55-0.99c0.07,0,0.14,0.04,0.17,0.1c0.03,0.06,0.02,0.14-0.03,0.2
				C193.77,388.29,192.58,389.48,191.64,389.48z M193.84,387.65c-1.1,0.09-2.56,0.34-2.81,0.78c-0.03,0.06-0.06,0.14,0.01,0.27
				c0.13,0.25,0.3,0.39,0.52,0.41C192.08,389.18,192.92,388.63,193.84,387.65z"/>
			<path class="st8" d="M194.08,387.63c-0.92,0-2.74-0.51-3.07-1.25c-0.07-0.15-0.13-0.45,0.2-0.76c0.21-0.2,0.47-0.28,0.76-0.25
				c1.1,0.11,2.38,1.89,2.44,1.96c0.04,0.05,0.04,0.12,0.02,0.18c-0.03,0.06-0.08,0.1-0.15,0.11
				C194.23,387.63,194.16,387.63,194.08,387.63z M191.86,385.73c-0.15,0-0.29,0.05-0.4,0.16c-0.17,0.16-0.15,0.27-0.12,0.35
				c0.22,0.49,1.64,0.98,2.56,1.03c-0.46-0.57-1.31-1.47-1.97-1.54C191.91,385.73,191.89,385.73,191.86,385.73z"/>
			<path class="st8" d="M141.78,406.19c-0.7,0-1.35-0.11-1.76-0.42c-0.28-0.21-0.44-0.51-0.46-0.87c-0.02-0.27,0.11-0.42,0.23-0.49
				c0.82-0.55,3.89,0.84,4.5,1.13c0.07,0.03,0.11,0.11,0.1,0.18c-0.01,0.08-0.06,0.14-0.14,0.16
				C143.6,406.02,142.65,406.19,141.78,406.19z M140.35,404.63c-0.15,0-0.28,0.02-0.35,0.08c-0.04,0.03-0.07,0.07-0.07,0.17
				c0.01,0.25,0.12,0.45,0.32,0.6c0.53,0.4,1.78,0.45,3.39,0.15C142.52,405.15,141.07,404.63,140.35,404.63z"/>
			<path class="st8" d="M144.21,405.88c-0.02,0-0.05,0-0.07-0.01c-1.02-0.42-3.07-2.06-2.96-2.92c0.03-0.19,0.15-0.42,0.62-0.48
				c1.8-0.21,2.55,3.05,2.59,3.19c0.01,0.07-0.01,0.13-0.06,0.18C144.3,405.87,144.26,405.88,144.21,405.88z M141.97,402.83
				c-0.04,0-0.08,0-0.12,0.01c-0.19,0.02-0.29,0.08-0.3,0.17c-0.07,0.49,1.35,1.8,2.39,2.37
				C143.7,404.58,143.05,402.83,141.97,402.83z"/>
			<path class="st12" d="M99.91,182.79l1.29-0.83C101.2,181.96,100.81,183.28,99.91,182.79z"/>
		</g>
	</g>
</g>
<g id="Account">
	<g>
		<g>
			<path d="M287.59,109.67H142.26c-6.6,0-11.74,5.4-11.42,12l13.62,282.57c0.32,6.6,5.98,12,12.58,12h145.33
				c6.6,0,11.74-5.4,11.42-12l-13.62-282.57C299.85,115.07,294.19,109.67,287.59,109.67z"/>
			<path class="st12" d="M292.92,109.67H147.59c-6.6,0-11.74,5.4-11.42,12l13.62,282.57c0.32,6.6,5.98,12,12.58,12H307.7
				c6.6,0,11.74-5.4,11.42-12L305.5,121.67C305.18,115.07,299.52,109.67,292.92,109.67z"/>
			<path class="st8" d="M161.98,408.24c-2.17,0-4.09-1.83-4.19-4l-13.62-282.57c-0.1-2.17,1.64-4,3.81-4h145.33
				c2.17,0,4.09,1.83,4.19,4l13.62,282.57c0.1,2.17-1.64,4-3.81,4H161.98z"/>
			<path class="st16" d="M161.89,406.24c-1.07,0-2.05-0.93-2.1-2l-13.62-282.57c-0.05-1.07,0.84-2,1.9-2H293.4
				c1.07,0,2.05,0.93,2.1,2l13.62,282.57c0.05,1.07-0.84,2-1.9,2H161.89z"/>
		</g>
		<g>
			<g class="st14">
				<path class="st5" d="M205.75,389.96h-28.83c-1.62,0-3-1.32-3.08-2.93l-2.11-43.71c-0.04-0.8,0.24-1.54,0.77-2.11
					c0.54-0.56,1.27-0.87,2.06-0.87h28.83c1.62,0,3,1.32,3.08,2.93l2.11,43.71c0.04,0.8-0.24,1.54-0.77,2.11
					C207.28,389.65,206.55,389.96,205.75,389.96z M174.57,341.33c-0.52,0-0.99,0.2-1.34,0.56c-0.35,0.36-0.52,0.85-0.5,1.37
					l2.11,43.71c0.05,1.09,0.98,1.98,2.08,1.98h28.83c0.52,0,0.99-0.2,1.34-0.56c0.35-0.36,0.52-0.85,0.5-1.37l-2.11-43.71
					c-0.05-1.09-0.98-1.98-2.08-1.98H174.57z"/>
				<g>
					<path class="st5" d="M203.03,351.52h-27.11c-0.28,0-0.5-0.22-0.5-0.5s0.22-0.5,0.5-0.5h27.11c0.28,0,0.5,0.22,0.5,0.5
						S203.31,351.52,203.03,351.52z"/>
					<path class="st5" d="M203.31,357.17H176.2c-0.28,0-0.5-0.22-0.5-0.5s0.22-0.5,0.5-0.5h27.11c0.28,0,0.5,0.22,0.5,0.5
						S203.58,357.17,203.31,357.17z"/>
					<path class="st5" d="M203.58,362.82h-27.11c-0.28,0-0.5-0.22-0.5-0.5c0-0.28,0.22-0.5,0.5-0.5h27.11c0.28,0,0.5,0.22,0.5,0.5
						C204.08,362.59,203.85,362.82,203.58,362.82z"/>
					<path class="st5" d="M203.85,368.47h-27.11c-0.28,0-0.5-0.22-0.5-0.5c0-0.28,0.22-0.5,0.5-0.5h27.11c0.28,0,0.5,0.22,0.5,0.5
						C204.35,368.24,204.13,368.47,203.85,368.47z"/>
					<path class="st5" d="M204.12,374.12h-27.11c-0.28,0-0.5-0.22-0.5-0.5s0.22-0.5,0.5-0.5h27.11c0.28,0,0.5,0.22,0.5,0.5
						S204.4,374.12,204.12,374.12z"/>
					<path class="st5" d="M198.84,379.77h-21.55c-0.28,0-0.5-0.22-0.5-0.5c0-0.28,0.22-0.5,0.5-0.5h21.55c0.28,0,0.5,0.22,0.5,0.5
						C199.34,379.54,199.11,379.77,198.84,379.77z"/>
				</g>
			</g>
			<g class="st14">
				<path class="st5" d="M223.9,229.63l-19.77,3.16c-1.12-2.53-2.11-4.29-2.96-5.28c-0.85-0.98-2.23-1.97-4.13-2.97l0.75,15.49
					c10.99,2.9,18.39,5.95,22.18,9.17c5.03,4.32,7.7,9.81,8.02,16.45c0.19,3.89-0.51,7.47-2.08,10.72
					c-1.58,3.25-3.66,5.97-6.25,8.15c-2.59,2.18-5.38,3.76-8.37,4.74c-2.99,0.98-6.67,1.56-11.06,1.74l0.13,2.72
					c0.1,2.16-1.56,3.91-3.72,3.91l0,0c-2.16,0-3.99-1.75-4.1-3.91l-0.13-2.72c-5.27-0.46-9.57-1.31-12.9-2.54
					c-3.33-1.23-6.23-2.94-8.71-5.11c-2.48-2.18-4.42-4.53-5.83-7.04c-1.41-2.52-2.52-5.56-3.33-9.13l21.51-2.52
					c0.81,3.53,1.8,6.09,2.97,7.66c1.16,1.57,3.03,2.96,5.58,4.18l-0.91-18.92c-7.31-2-12.51-3.73-15.59-5.2
					c-3.09-1.46-5.82-3.81-8.19-7.05c-2.37-3.23-3.67-7.17-3.89-11.82c-0.31-6.36,1.66-11.67,5.9-15.94
					c4.24-4.27,10.74-6.64,19.5-7.1l-0.07-1.39c-0.1-2.16,1.56-3.91,3.72-3.91l0,0c2.16,0,3.99,1.75,4.1,3.91l0.07,1.39
					c8.02,0.5,14.23,2.39,18.62,5.68C219.36,219.42,222.34,223.92,223.9,229.63z M189.2,224.28c-2.25,0.75-3.79,1.69-4.63,2.8
					c-0.84,1.11-1.22,2.42-1.15,3.93c0.08,1.58,0.59,2.95,1.56,4.12c0.96,1.17,2.59,2.14,4.89,2.93L189.2,224.28z M199.56,277.03
					c3-0.68,5.17-1.8,6.51-3.36c1.33-1.56,1.96-3.3,1.86-5.24c-0.08-1.68-0.75-3.23-2.01-4.65c-1.26-1.41-3.66-2.73-7.18-3.94
					L199.56,277.03z"/>
			</g>
		</g>
		<g>
			<path class="st11" d="M276.16,146.56h-98.97l9.65,200.11c0.81,16.87,15.15,30.54,32.01,30.54h98.97l-9.65-200.11
				C307.36,160.23,293.03,146.56,276.16,146.56z"/>
			<g>
				<path class="st5" d="M300.41,146.56h-92.67h-30.54c16.87,0,31.2,13.67,32.01,30.54l7.85,162.89
					c0.81,16.87,15.15,30.54,32.01,30.54h62.13c16.87,0,29.88-13.67,29.07-30.54l-7.85-162.89
					C331.61,160.23,317.28,146.56,300.41,146.56z"/>
				<path class="st1" d="M278.14,339.99c0.81,16.87-12.2,30.54-29.07,30.54h30.54h92.67c16.87,0,29.88-13.67,29.07-30.54H278.14z"/>
			</g>
			<g>
				<path class="st8" d="M317.76,247.67h-87.09c-1.25,0-2.32-1.02-2.38-2.27l0,0c-0.06-1.25,0.91-2.27,2.16-2.27h87.09
					c1.25,0,2.32,1.02,2.38,2.27l0,0C319.98,246.65,319.01,247.67,317.76,247.67z"/>
				<path class="st8" d="M318.44,261.84h-87.09c-1.25,0-2.32-1.02-2.38-2.27l0,0c-0.06-1.25,0.91-2.27,2.16-2.27h87.09
					c1.25,0,2.32,1.02,2.38,2.27l0,0C320.66,260.82,319.69,261.84,318.44,261.84z"/>
				<path class="st8" d="M319.13,276.01h-87.09c-1.25,0-2.32-1.02-2.38-2.27l0,0c-0.06-1.25,0.91-2.27,2.16-2.27h87.09
					c1.25,0,2.32,1.02,2.38,2.27l0,0C321.35,274.99,320.38,276.01,319.13,276.01z"/>
				<path class="st8" d="M319.81,290.19h-87.09c-1.25,0-2.32-1.02-2.38-2.27l0,0c-0.06-1.25,0.91-2.27,2.16-2.27h87.09
					c1.25,0,2.32,1.02,2.38,2.27l0,0C322.03,289.16,321.06,290.19,319.81,290.19z"/>
				<path class="st8" d="M285.87,304.36h-52.46c-1.25,0-2.32-1.02-2.38-2.27l0,0c-0.06-1.25,0.91-2.27,2.16-2.27h52.46
					c1.25,0,2.32,1.02,2.38,2.27l0,0C288.09,303.34,287.12,304.36,285.87,304.36z"/>
			</g>
			<g>
				
					<ellipse transform="matrix(0.6985 -0.7156 0.7156 0.6985 -60.2335 254.4405)" class="st8" cx="271.86" cy="198.71" rx="26.71" ry="28.03"/>
				<path class="st4" d="M294.44,198.7c0.19,3.9-0.62,7.56-2.21,10.76c-3.47,7.04-10.7,11.82-19.28,11.82
					c-8.58,0-16.27-4.79-20.42-11.82c-1.89-3.19-3.06-6.86-3.25-10.76c-0.6-12.47,9.02-22.58,21.49-22.58
					S293.83,186.23,294.44,198.7z"/>
				<path class="st17" d="M292.23,209.46c-3.47,7.04-10.7,11.82-19.28,11.82c-8.58,0-16.27-4.79-20.42-11.82
					c5.5-3.8,12.22-6.01,19.56-6.01S286.36,205.66,292.23,209.46z"/>
				
					<ellipse transform="matrix(0.6986 -0.7155 0.7155 0.6986 -54.8199 251.8245)" class="st17" cx="271.48" cy="190.98" rx="9.82" ry="10.3"/>
			</g>
		</g>
	</g>
</g>
<g id="Character_Male">
	<g>
		<g>
			<polygon class="st18" points="356.76,408.74 349.41,408.74 348.68,391.72 356.03,391.72 			"/>
			<polygon class="st11" points="348.68,391.73 349.06,400.5 356.41,400.5 356.03,391.73 			"/>
		</g>
		<g>
			<polygon class="st18" points="419.29,388.8 412.31,391.08 403.52,376.05 410.51,373.77 			"/>
			<polygon class="st11" points="410.51,373.77 403.53,376.05 408.05,383.8 415.04,381.52 			"/>
		</g>
		<path class="st18" d="M381.6,162.92c0.91,1.11,1.69,2.11,2.47,3.19c0.78,1.06,1.54,2.13,2.29,3.21c1.49,2.17,2.9,4.39,4.23,6.68
			c2.64,4.59,5.04,9.39,6.74,14.72l0.16,0.5l0.08,0.26l0.11,0.41l0.2,0.82l0.11,0.75c0.14,1,0.14,1.87,0.11,2.71
			c-0.09,1.66-0.35,3.13-0.66,4.53c-0.62,2.81-1.55,5.33-2.51,7.81c-2,4.93-4.37,9.49-7.15,13.95l-4.97-2.39
			c1.5-4.68,2.96-9.49,4.1-14.16c0.58-2.33,1.04-4.67,1.29-6.84c0.12-1.08,0.17-2.13,0.11-2.99c-0.03-0.42-0.07-0.82-0.15-1.06
			l-0.05-0.18c-0.02-0.03-0.04-0.06-0.05-0.09l-0.02-0.05l-0.08-0.18l-0.17-0.39l-0.67-1.57l-0.75-1.56
			c-0.5-1.04-1.05-2.08-1.6-3.12c-1.13-2.07-2.37-4.12-3.64-6.15c-1.3-2.03-2.64-4.04-4.02-6.02c-1.35-1.98-2.85-3.99-4.21-5.8
			L381.6,162.92z"/>
		<path class="st18" d="M383.23,218.88l-2.88,6.35h8.22c0,0,1.31-4.82-1.67-6.77L383.23,218.88z"/>
		<polygon class="st18" points="381.32,232.37 388.94,230.89 388.57,225.23 380.36,225.23 		"/>
		<path class="st12" d="M345.22,130.69c0,0.59-0.31,1.07-0.7,1.07c-0.39,0-0.7-0.48-0.7-1.07c0-0.59,0.31-1.07,0.7-1.07
			C344.91,129.62,345.22,130.1,345.22,130.69z"/>
		<path class="st19" d="M344.96,131.77c0,0-1.35,3.42-2.83,5.07c1.05,0.98,2.83,0.53,2.83,0.53V131.77z"/>
		<path class="st12" d="M347.32,127.41c-0.07,0-0.14-0.02-0.2-0.07c-1.26-0.91-2.46-0.46-2.47-0.45c-0.18,0.07-0.38-0.02-0.45-0.2
			c-0.07-0.18,0.02-0.38,0.2-0.45c0.06-0.02,1.57-0.59,3.13,0.54c0.16,0.11,0.19,0.33,0.08,0.49
			C347.54,127.36,347.43,127.41,347.32,127.41z"/>
		<path class="st18" d="M364.35,137.52c-1.05,5.37-2.11,15.22,1.65,18.81c0,0-1.47,5.45-11.46,5.45c-10.98,0-5.25-5.45-5.25-5.45
			c5.99-1.43,5.84-5.88,4.79-10.05L364.35,137.52z"/>
		<path class="st12" d="M367.44,158.2c0.79-1.73,1.65-3.7-0.14-4.32c-1.97-0.68-12.77-1.38-16.49-0.1
			c-3.72,1.28-2.67,4.78-2.67,4.78L367.44,158.2z"/>
		<path class="st8" d="M410.8,392.83c-0.54,0.52-1.15,0.94-1.61,0.87c-0.19-0.03-0.45-0.16-0.57-0.6c-0.06-0.23-0.02-0.46,0.11-0.67
			c0.6-0.93,3.03-1.32,3.13-1.34c0.07-0.01,0.14,0.02,0.17,0.08c0.04,0.06,0.04,0.13,0,0.19
			C411.83,391.68,411.35,392.3,410.8,392.83z M409.17,392.45c-0.06,0.05-0.1,0.11-0.14,0.16c-0.08,0.13-0.11,0.26-0.07,0.39
			c0.08,0.32,0.23,0.34,0.28,0.35c0.51,0.08,1.6-0.95,2.27-1.84C410.78,391.67,409.65,391.99,409.17,392.45z"/>
		<path class="st8" d="M412.02,391.38c-0.02,0.02-0.05,0.03-0.07,0.04c-0.83,0.23-3.01,0.08-3.46-0.62
			c-0.08-0.13-0.18-0.39,0.09-0.71c0.17-0.21,0.4-0.33,0.69-0.35c1.1-0.09,2.69,1.32,2.76,1.38c0.05,0.04,0.07,0.11,0.05,0.17
			C412.06,391.33,412.04,391.36,412.02,391.38z M408.89,390.26c-0.02,0.02-0.04,0.04-0.05,0.06c-0.14,0.18-0.09,0.26-0.06,0.3
			c0.27,0.41,1.79,0.64,2.73,0.54c-0.49-0.39-1.51-1.12-2.22-1.06C409.12,390.1,408.99,390.16,408.89,390.26z"/>
		<path class="st8" d="M346.46,409.11c-0.94,0-1.85-0.13-2.16-0.55c-0.11-0.15-0.19-0.4,0.01-0.76c0.12-0.2,0.3-0.34,0.55-0.41
			c1.22-0.33,3.79,1.13,3.9,1.19c0.06,0.04,0.1,0.11,0.08,0.18c-0.01,0.07-0.07,0.13-0.14,0.14
			C348.25,409,347.34,409.11,346.46,409.11z M345.3,407.69c-0.12,0-0.24,0.01-0.34,0.04c-0.16,0.04-0.27,0.12-0.34,0.24
			c-0.12,0.22-0.08,0.32-0.03,0.38c0.34,0.47,2.2,0.49,3.56,0.29C347.47,408.3,346.16,407.69,345.3,407.69z"/>
		<path class="st8" d="M348.68,408.91c-0.02,0-0.05-0.01-0.07-0.02c-0.89-0.4-2.64-1.99-2.51-2.82c0.03-0.2,0.17-0.44,0.65-0.49
			c0.35-0.04,0.68,0.06,0.96,0.3c0.93,0.77,1.13,2.75,1.14,2.83c0.01,0.06-0.02,0.12-0.07,0.16
			C348.75,408.9,348.72,408.91,348.68,408.91z M346.89,405.93c-0.03,0-0.07,0-0.1,0.01c-0.31,0.03-0.33,0.16-0.34,0.2
			c-0.08,0.5,1.11,1.75,2.02,2.29c-0.09-0.58-0.36-1.76-0.97-2.27C347.31,406.01,347.11,405.93,346.89,405.93z"/>
		<path class="st12" d="M411.7,390.27l5.96-5.7c0.22-0.21,0.55-0.24,0.8-0.07l5.56,3.72c0.58,0.39,0.64,1.22,0.13,1.69
			c-2.12,1.96-3.24,2.8-5.87,5.31c-1.61,1.54-6.44,6.8-8.67,8.93c-2.18,2.08-4.63,0.21-3.91-0.87c3.23-4.81,5.26-9.42,5.44-11.85
			C411.19,390.98,411.39,390.57,411.7,390.27z"/>
		<path class="st12" d="M349.46,407.89h8.02c0.3,0,0.56,0.21,0.63,0.5l1.45,6.53c0.15,0.68-0.36,1.32-1.06,1.31
			c-2.89-0.05-7.08-0.22-10.71-0.22c-4.25,0-7.93,0.23-12.91,0.23c-3.02,0-3.85-3.05-2.59-3.33c5.75-1.26,10.44-1.39,15.41-4.45
			C348.23,408.13,348.83,407.89,349.46,407.89z"/>
		<path class="st18" d="M338.98,173.02c-2.91,4.29-5.93,8.31-9.17,12.29c-3.24,3.95-6.64,7.81-10.4,11.47l-1.45,1.36l-0.36,0.34
			l-0.26,0.24l-0.37,0.32c-0.49,0.4-1.01,0.74-1.51,1.01c-2.03,1.1-3.83,1.37-5.45,1.53c-3.24,0.25-5.99-0.18-8.66-0.71
			c-5.31-1.15-10.1-2.93-14.85-5.22l1.83-5.2c4.72,0.88,9.62,1.66,14.19,1.94c2.27,0.13,4.54,0.09,6.27-0.26
			c0.85-0.17,1.52-0.49,1.66-0.65c0.04-0.04,0.04-0.06,0.02-0.06c-0.01,0-0.02,0-0.02,0c0,0-0.02,0.02,0-0.01l0.07-0.08l0.3-0.33
			l1.18-1.3c3.13-3.56,6.15-7.36,9.1-11.24c2.95-3.86,5.89-7.86,8.7-11.74L338.98,173.02z"/>
		<g>
			<path class="st8" d="M379.16,157.99c6.89,1.58,14.78,20.35,14.78,20.35l-13.83,9.48c0,0-5.24-7.33-9.13-15.53
				C366.9,163.7,372.12,156.38,379.16,157.99z"/>
			<path class="st14" d="M374.22,169.96l6.54,17.41l-0.65,0.45c0,0-2.83-3.97-5.89-9.33V169.96z"/>
		</g>
		<g>
			<path class="st8" d="M338,158.37c0,0-7.82,8.83-0.43,63.5c11.84,0,33.53,0,39.29,0c0.27-6.03-3.52-35.46,2.3-63.88
				c0,0-6.74-1.35-13.15-1.66c-5.02-0.24-12.29-0.4-16.7,0C343.48,156.86,338,158.37,338,158.37z"/>
			<path class="st14" d="M342.36,174.18c-0.13,0.16-0.99,9.03-7.76,16.82c-0.16-3.52-0.22-6.68-0.21-9.51L342.36,174.18z"/>
		</g>
		<path class="st8" d="M345.75,164.33c0.97,6.96-12.74,24.73-12.74,24.73l-13.77-9.48c0,0,3.82-9.79,10.25-16.21
			C336.84,156.04,344.7,156.76,345.75,164.33z"/>
		<path class="st18" d="M289.32,190.97l-5.39-5.57l-5.75,7.42c0,0,4.38,4.22,9.59,3.03L289.32,190.97z"/>
		<polygon class="st18" points="276.53,182.33 274.07,190.11 278.18,192.81 283.93,185.4 		"/>
		<path class="st18" d="M364.99,129.44c-0.45,7.28-0.34,11.56-4.01,15.29c-5.53,5.62-14.51,2.29-16.25-4.98
			c-1.56-6.54-0.57-17.34,6.55-20.24C358.3,116.66,365.43,122.16,364.99,129.44z"/>
		<path class="st12" d="M371.33,114.25c2.24,2.06,1.29,4.36,0.12,4.79c3.63,0.75,4.16,3.64,2.25,9.74
			c-1.83,5.84-6.24,13.67-11.75,14.15c-8.28,0.72-10.7-7.9-10.76-16.46c-4.69,0.28-2.67-3.87-8.41-2.91
			c-4.96,0.83-3.13-3.07-7.37-4.77c-4.93-1.97-3.94-9.55,0.66-7.38c0,0-2.13,1.41,0.35,2.72s2.24-1.73,7.15-2.09
			c4.9-0.37,5.48,3.83,11.22,1.3C362.03,110.15,366.73,110.02,371.33,114.25z"/>
		<path class="st12" d="M368.57,118.97c0,0,0.94-1.73,3.19-1.25c2.25,0.48,2.44,1.47,3.85,1.34c1.41-0.13,0.9,1.37,0.9,1.37
			s-0.38-1.13-2.08-0.5c-1.7,0.63-2.81-0.91-3.54-0.22C370.15,120.4,368.57,118.97,368.57,118.97z"/>
		<path class="st18" d="M355.12,131.42c-0.32,1.88-1.39,3.57-2.57,4.62c-1.78,1.58-3.33,0.31-3.38-1.85
			c-0.05-1.95,0.82-5.12,2.87-5.88C354.07,127.56,355.49,129.26,355.12,131.42z"/>
		<path class="st12" d="M351.5,221.87c0,0,8.34,56.14,12.91,77.18c5.01,23.03,39.85,84.2,39.85,84.2l12.79-4.17
			c0,0-27.75-55.14-30.61-77.94c-3.1-24.75-9.6-79.26-9.6-79.26H351.5z"/>
		<path class="st8" d="M400.69,379.2c-0.05,0.02,2.92,4.48,2.92,4.48l14.39-4.69l-1.69-4.3L400.69,379.2z"/>
		<path class="st14" d="M356.77,241.87c9.64,1.89,8.62,37.84,7.46,56.33c-2.78-13.07-6.85-38.22-9.63-56.07
			C355.24,241.81,355.96,241.71,356.77,241.87z"/>
		<path class="st12" d="M337.57,221.87c0,0-1.01,54.93-0.21,77.33c0.83,23.3,8.97,99.6,8.97,99.6h12.44c0,0,0.46-74.94,1.01-97.82
			c0.6-24.95,3.62-79.11,3.62-79.11H337.57z"/>
		<path class="st8" d="M343.93,393.84c-0.06,0,0.7,5.17,0.7,5.17h15.14l0.41-4.61L343.93,393.84z"/>
	</g>
</g>
</svg>
