<?xml version="1.0" encoding="utf-8"?>
<!-- Generator: Adobe Illustrator 23.0.0, SVG Export Plug-In . SVG Version: 6.00 Build 0)  -->
<svg version="1.1" id="Layer_1" xmlns="http://www.w3.org/2000/svg" xmlns:xlink="http://www.w3.org/1999/xlink" x="0px" y="0px"
	 viewBox="0 0 512 512" style="enable-background:new 0 0 512 512;" xml:space="preserve">
<style type="text/css">
	.st0{fill:#FFFFFF;}
	.st1{fill:none;}
	.st2{fill:#B0006E;}
</style>
<rect class="st0" width="512" height="512"/>
<rect class="st1" width="512" height="512"/>
<path class="st2" d="M40.7,21.5h430.5c10.3,0,18.7,8.4,18.7,18.8v431.4c0,10.4-8.4,18.8-18.7,18.8H40.7c-10.3,0-18.7-8.4-18.7-18.8
	V40.3C22,29.9,30.4,21.5,40.7,21.5z"/>
<path class="st0" d="M63.9,435.6H70v3.4c2.1-2.6,4.8-4,7.7-4c1.6,0,2.9,0.3,4.2,1.1c1.1,0.5,2.1,1.6,2.9,2.9
	c1.1-1.3,2.4-2.4,3.7-2.9c1.3-0.8,2.6-1.1,4-1.1c1.8,0,3.4,0.3,4.8,1.1c1.3,0.8,2.1,1.8,2.9,3.4c0.5,1.1,0.8,2.9,0.8,5.3V461h-6.6
	v-14.3c0-2.4-0.3-4-0.8-4.8c-0.5-0.8-1.6-1.3-2.9-1.3c-1.1,0-1.8,0.3-2.6,0.8c-0.8,0.5-1.3,1.3-1.8,2.4c-0.3,1.1-0.5,2.9-0.5,5V461
	H79v-13.7c0-2.4-0.3-4-0.3-4.8c-0.3-0.8-0.5-1.3-1.1-1.6c-0.5-0.3-1.3-0.5-2.1-0.5c-1.1,0-1.8,0.3-2.6,0.8c-0.8,0.5-1.3,1.3-1.8,2.4
	c-0.3,1.1-0.5,2.6-0.5,5.3V461h-6.6V435.6L63.9,435.6z"/>
<path class="st0" d="M111.2,447.8c0-2.1,0.5-4.2,1.6-6.3c1.1-2.1,2.6-3.7,4.8-4.8c1.8-1.1,4.2-1.6,6.6-1.6c3.7,0,6.9,1.3,9.2,3.7
	c2.4,2.4,3.7,5.5,3.7,9.2c0,3.7-1.3,6.9-3.7,9.5c-2.4,2.6-5.5,3.7-9.2,3.7c-2.4,0-4.5-0.5-6.6-1.6c-2.1-1.1-3.7-2.6-4.8-4.5
	C111.8,453.1,111.2,450.7,111.2,447.8z M117.8,448.1c0,2.4,0.5,4.2,1.8,5.8c1.1,1.3,2.6,1.9,4.5,1.9c1.8,0,3.2-0.5,4.2-1.9
	c1.1-1.3,1.8-3.2,1.8-5.8c0-2.4-0.5-4.2-1.8-5.5c-1.1-1.3-2.6-2.1-4.2-2.1c-1.8,0-3.2,0.5-4.5,2.1
	C118.6,443.8,117.8,445.7,117.8,448.1z"/>
<path class="st0" d="M147.2,460.7v-34.6h6.6v12.4c2.1-2.4,4.5-3.4,7.1-3.4c3.2,0,5.5,1.1,7.7,3.2c2.1,2.4,2.9,5.3,2.9,9.5
	c0,4.2-1.1,7.7-3.2,9.8c-2.1,2.4-4.5,3.4-7.4,3.4c-1.3,0-2.9-0.3-4.2-1.1c-1.3-0.8-2.6-1.9-3.7-3.2v3.7h-5.8V460.7z M153.8,447.5
	c0,2.6,0.5,4.5,1.3,5.8c1.1,1.8,2.6,2.6,4.5,2.6c1.6,0,2.6-0.5,3.7-1.8c1.1-1.3,1.6-3.2,1.6-5.8c0-2.9-0.5-5-1.6-6.1
	c-1.1-1.3-2.4-1.8-4-1.8c-1.6,0-2.9,0.5-4,1.8C154.3,443.3,153.8,445.2,153.8,447.5z"/>
<path class="st0" d="M182.3,426.1h6.6v6.1h-6.6V426.1z M182.3,435.6h6.6v25.1h-6.6V435.6z"/>
<path class="st0" d="M207.7,426.1h-6.6v34.6h6.6V426.1z"/>
<path class="st0" d="M234.3,452.8l6.6,1.1c-0.8,2.4-2.1,4.2-4,5.5c-1.8,1.3-4.2,1.9-6.9,1.9c-4.2,0-7.7-1.3-9.5-4.2
	c-1.6-2.4-2.4-5.3-2.4-8.7c0-4.2,1.1-7.4,3.2-9.8c2.1-2.4,5-3.4,8.2-3.4c3.7,0,6.6,1.3,8.7,3.7c2.1,2.4,3.2,6.3,3.2,11.4h-16.9
	c0,1.8,0.5,3.4,1.6,4.5c1.1,1.1,2.4,1.6,4,1.6c1.1,0,1.9-0.3,2.6-0.8C233.3,454.9,233.8,453.9,234.3,452.8z M234.6,446
	c0-1.9-0.5-3.4-1.6-4.2c-0.8-1.1-2.1-1.6-3.4-1.6c-1.6,0-2.6,0.5-3.7,1.6c-1.1,1.1-1.3,2.4-1.3,4.2H234.6z"/>
<path class="st0" d="M274.8,435.6h6.1v3.4c2.1-2.6,4.8-4,7.7-4c1.6,0,2.9,0.3,4.2,1.1c1.1,0.5,2.1,1.6,2.9,2.9
	c1.1-1.3,2.4-2.4,3.4-2.9c1.3-0.8,2.6-1.1,4-1.1c1.8,0,3.4,0.3,4.8,1.1c1.3,0.8,2.4,1.8,2.9,3.4c0.5,1.1,0.8,2.9,0.8,5.3V461h-6.6
	v-14.3c0-2.4-0.3-4-0.8-4.8c-0.5-0.8-1.6-1.3-2.9-1.3c-1.1,0-1.8,0.3-2.6,0.8c-0.8,0.5-1.3,1.3-1.8,2.4c-0.3,1.1-0.5,2.9-0.5,5V461
	h-6.6v-13.7c0-2.4-0.3-4-0.3-4.8c-0.3-0.8-0.5-1.3-1.1-1.6c-0.5-0.3-1.1-0.5-2.1-0.5c-1.1,0-1.9,0.3-2.6,0.8
	c-0.8,0.5-1.3,1.3-1.9,2.4c-0.3,1.1-0.5,2.6-0.5,5.3V461h-6.3V435.6z"/>
<path class="st0" d="M322,447.8c0-2.1,0.5-4.2,1.6-6.3c1.1-2.1,2.6-3.7,4.8-4.8c1.8-1.1,4.2-1.6,6.6-1.6c3.7,0,6.9,1.3,9.2,3.7
	c2.4,2.4,3.7,5.5,3.7,9.2c0,3.7-1.3,6.9-3.7,9.5c-2.4,2.6-5.5,3.7-9.2,3.7c-2.4,0-4.5-0.5-6.6-1.6c-2.1-1.1-3.7-2.6-4.8-4.5
	C322.6,453.1,322,450.7,322,447.8z M328.7,448.1c0,2.4,0.5,4.2,1.8,5.8c1.1,1.3,2.6,1.9,4.2,1.9c1.8,0,3.2-0.5,4.2-1.9
	c1.1-1.3,1.8-3.2,1.8-5.8c0-2.4-0.5-4.2-1.8-5.5c-1.1-1.3-2.6-2.1-4.2-2.1c-1.8,0-3.2,0.5-4.2,2.1
	C329.4,443.8,328.7,445.7,328.7,448.1z"/>
<path class="st0" d="M381,460.7h-6.6v-12.7c0-2.6-0.3-4.5-0.5-5.3c-0.3-0.8-0.8-1.6-1.3-1.9c-0.8-0.5-1.3-0.5-2.4-0.5
	c-1.1,0-2.1,0.3-3.2,0.8c-1.1,0.5-1.6,1.6-1.9,2.6c-0.3,1.1-0.5,2.9-0.5,5.8V461H358v-25.1h6.1v3.7c2.1-2.9,5-4.2,8.2-4.2
	c1.6,0,2.9,0.3,4,0.8c1.1,0.5,2.1,1.3,2.6,2.1c0.5,0.8,1.1,1.9,1.3,2.9c0.3,1.1,0.3,2.4,0.3,4.5v15.1H381z"/>
<path class="st0" d="M407.6,452.8l6.6,1.1c-0.8,2.4-2.1,4.2-4,5.5c-1.8,1.3-4,1.9-6.9,1.9c-4.2,0-7.7-1.3-9.8-4.2
	c-1.6-2.4-2.4-5.3-2.4-8.7c0-4.2,1.1-7.4,3.2-9.8c2.1-2.4,4.8-3.4,8.2-3.4c3.7,0,6.6,1.3,8.7,3.7c2.1,2.4,3.2,6.3,3.2,11.4h-16.6
	c0,1.8,0.5,3.4,1.6,4.5c1.1,1.1,2.4,1.6,3.7,1.6c1.1,0,1.9-0.3,2.6-0.8C406.6,454.9,407.1,453.9,407.6,452.8z M407.9,446
	c0-1.9-0.5-3.4-1.6-4.2c-1.1-1.1-2.1-1.6-3.4-1.6c-1.6,0-2.6,0.5-3.7,1.6c-1.1,1.1-1.3,2.4-1.3,4.2H407.9z"/>
<path class="st0" d="M422.2,435.6h7.1l6.1,17.7l5.8-17.7h6.9l-8.7,24l-1.6,4.2c-0.5,1.6-1.1,2.6-1.6,3.4c-0.5,0.8-1.1,1.3-1.8,1.8
	c-0.8,0.5-1.6,0.8-2.6,1.1c-1.1,0.3-2.1,0.5-3.4,0.5c-1.3,0-2.6-0.3-3.7-0.5L424,465c1.1,0.3,1.8,0.3,2.6,0.3c1.6,0,2.6-0.5,3.4-1.3
	c0.8-0.8,1.3-2.1,1.6-3.4L422.2,435.6z"/>
<path class="st0" d="M364.6,51.3c-46,0-83.2,37.3-83.2,83.2c0,46,37.3,83.2,83.2,83.2s83.2-37.3,83.2-83.2
	C447.8,88.5,410.6,51.3,364.6,51.3z M364.6,170.7c-20.1,0-36.2-16.1-36.2-36.2c0-20.1,16.1-36.2,36.2-36.2
	c20.1,0,36.2,16.1,36.2,36.2C400.8,154.3,384.7,170.7,364.6,170.7z"/>
<path class="st0" d="M114.7,217.4V109.6c0-6.3,5.5-11.6,12.4-11.6c6.9,0,12.4,5,12.4,11.4v107.8h50.7V109.6
	c0-6.3,5.5-11.4,12.4-11.4c6.9,0,12.4,5.3,12.4,11.6v107.8h50.7V109.6c0-32.2-28.3-58.7-63.1-58.7c-14.3,0-27.2,4.5-37.8,11.6
	C154.3,55.2,141.3,51,127.1,51c-34.9,0-63.1,26.2-63.1,58.7v107.8H114.7z"/>
<path class="st0" d="M364.6,243.1c-46,0-83.2,37.3-83.2,83.2s37.3,83.2,83.2,83.2s83.2-37.3,83.2-83.2S410.6,243.1,364.6,243.1z
	 M364.6,362.5c-20.1,0-36.2-16.1-36.2-36.2c0-20.1,16.1-36.2,36.2-36.2c20.1,0,36.2,16.1,36.2,36.2
	C400.8,346.4,384.7,362.5,364.6,362.5z"/>
<path class="st0" d="M114.7,409.5V301.7c0-6.3,5.5-11.6,12.4-11.6c6.9,0,12.4,5,12.4,11.4v108.1h50.7V301.7
	c0-6.3,5.5-11.4,12.4-11.4c6.9,0,12.4,5.3,12.4,11.6v107.5h50.7V301.7c-0.3-32.2-28.5-58.6-63.1-58.6c-14.3,0-27.2,4.5-37.8,11.6
	c-10.6-7.4-23.5-11.6-37.8-11.6c-34.9,0-63.1,26.2-63.1,58.6v107.8H114.7z"/>
</svg>
