<?xml version="1.0" encoding="utf-8"?>
<!-- Generator: Adobe Illustrator 23.0.0, SVG Export Plug-In . SVG Version: 6.00 Build 0)  -->
<svg version="1.1" id="Layer_1" xmlns="http://www.w3.org/2000/svg" xmlns:xlink="http://www.w3.org/1999/xlink" x="0px" y="0px"
	 viewBox="0 0 792 612" style="enable-background:new 0 0 792 612;" xml:space="preserve">
<style type="text/css">
	.st0{fill-rule:evenodd;clip-rule:evenodd;fill:#FFFFFF;}
	.st1{fill-rule:evenodd;clip-rule:evenodd;fill:#005883;}
	.st2{fill-rule:evenodd;clip-rule:evenodd;fill:#F2A62C;}
</style>
<path class="st0" d="M717.6,543.3H73.4c-29.6,0-53.7-24-53.7-53.7V122.9c0-29.6,24-53.7,53.7-53.7h644.2c29.6,0,53.7,24,53.7,53.7
	v366.7C771.3,519.3,747.2,543.3,717.6,543.3z"/>
<path class="st1" d="M771.3,123.2c0-36.1-18.8-54-55.1-54H74.9C56.7,69.2,43.3,74,34.5,84c-9.9,10-14.8,22.7-14.8,39.2v366.1
	c0,16.5,4.8,29,14.8,39.2c10.2,9.9,23.3,14.8,40.4,14.8h641.2c36.4,0,55.1-18.2,55.1-54V123.2L771.3,123.2z M716.1,77.7
	c30.1,0,45.5,15.3,45.5,45.5v366.1c0,30.4-15.3,45.5-45.5,45.5H74.9c-14.5,0-25.6-4.3-33.8-12.8c-8.5-8.2-12.8-19.6-12.8-32.7V123.2
	c0-30.1,15.1-45.5,46.6-45.5H716.1L716.1,77.7z"/>
<path class="st1" d="M80,98.8c-12.2,0-19.9,2-24.2,6.3c-3.7,4.8-5.4,12.8-5.4,24.4v79.3h690.1v-79.3c0-20.7-10.2-30.7-30.7-30.7H80
	L80,98.8z"/>
<path class="st2" d="M50.4,481.9c0,21,9.9,31.8,29.6,31.8h629.9c20.5,0,30.7-10.8,30.7-31.8v-79.3H50.4V481.9L50.4,481.9z"/>
<path class="st1" d="M279,242.6c0,3.7-0.6,6.5-2,8.5l-49.7,86.7l-3.1-105.7h-79.6l26.7,12.8c7.7,4.8,11.7,11.1,11.7,19l7.4,112.3
	h38.9l93.2-144.1h-47.8C277.5,234.6,279,238.6,279,242.6L279,242.6z"/>
<path class="st1" d="M600.7,236.3l3.1-4.3h-48.6c1.7,1.7,2.3,2.6,2.3,3.1c-0.6,2.3-1.7,3.7-2.3,5.4l-70.8,129
	c-1.7,2.3-3.4,4.3-5.4,6.5h40.1l-2-4.3c0-3.7,2-10.5,6.3-20.2l8.5-15.9h41.2c1.7,13.4,2.8,24.4,3.4,32.7l-3.4,7.7h49.7l-7.4-10.8
	L600.7,236.3L600.7,236.3z M571.2,315.6h-29.6l25.3-48.6L571.2,315.6L571.2,315.6z"/>
<path class="st1" d="M448.4,224.7c-15.3,0-28.4,4.3-40.1,12.8c-12.8,7.4-19,16.8-19,28.4c0,13.4,4.5,25,13.6,33.8l27.6,19
	c9.9,7.1,14.8,13.4,14.8,19c0,5.4-2.6,10.2-7.4,13.9c-4.8,3.7-10.2,5.4-17.1,5.4c-10,0-27-7.1-50.6-20.2v26.4
	c18.5,11.1,36.4,16.8,53.7,16.8c16.5,0,30.4-4.5,42.4-14.8c12.8-9.4,19-20.5,19-32.7c0-10.2-4.5-19.6-14.8-29.6l-26.4-19
	c-8.8-7.1-13.6-13.4-13.6-18.2c0-11.1,6.5-16.8,19.9-16.8c9.1,0,22.5,5.1,40.4,15.9l5.4-27.6C481,228.9,465.4,224.7,448.4,224.7
	L448.4,224.7z"/>
<path class="st1" d="M342.6,376.2c-0.6-6-1.7-11.4-2.3-17.1l36.1-116.5l8.5-10.5h-52c0.6,2.6,1.1,6,1.7,8.5c0,2.6,0,5.7-0.6,8.5
	L298,364.5l-7.4,11.7H342.6L342.6,376.2z"/>
</svg>
