<?xml version="1.0" encoding="utf-8"?>
<!-- Generator: Adobe Illustrator 23.0.0, SVG Export Plug-In . SVG Version: 6.00 Build 0)  -->
<svg version="1.1" id="Layer_1" xmlns="http://www.w3.org/2000/svg" xmlns:xlink="http://www.w3.org/1999/xlink" x="0px" y="0px"
	 viewBox="0 0 512 512" style="enable-background:new 0 0 512 512;" xml:space="preserve">
<style type="text/css">
	.st0{fill:#F55D5C;}
	.st1{fill:#EEEFEE;}
	.st2{fill:#414451;}
	.st3{fill:#DBD8DD;}
	.st4{fill:#575B6D;}
</style>
<g id="Circle_Grid">
	<circle class="st0" cx="256" cy="256" r="256"/>
</g>
<g id="icon">
	<g>
		<path class="st1" d="M181.1,305.2l-30.2-160.6h269c2.3,0,4.1,1.8,4.1,4.1c0,0.3,0,0.7-0.1,1l-32.5,130.8c-0.4,1.7-1.8,2.9-3.6,3.1
			L181.1,305.2z M163.1,154.3l25.5,140.5L383,274.4l29.8-120.1H163.1z"/>
		<path class="st1" d="M162.9,169.7h249.9v9.6H162.9L162.9,169.7z"/>
		<path class="st1" d="M169.6,198.4h236v9.6h-236V198.4z"/>
		<path class="st1" d="M176.3,227.1h222.2v9.6H176.3V227.1z"/>
		<path class="st1" d="M177.7,255.7h213.6v9.6H177.7L177.7,255.7z"/>
		<path class="st1" d="M364.1,149.4h9.6v131.2h-9.6V149.4z"/>
		<path class="st1" d="M323.6,149.4h9.6v135.4h-9.6V149.4z"/>
		<path class="st1" d="M283.2,149.4h9.6V289h-9.6V149.4z"/>
		<path class="st1" d="M242.7,149.4h9.6v143.8h-9.6V149.4z"/>
		<path class="st1" d="M202.2,149.4h9.6v147.9h-9.6V149.4z"/>
	</g>
	<path class="st2" d="M232.9,368.7c0,13.6-11.1,24.7-24.7,24.6c-13.6,0-24.7-11.1-24.6-24.7c0-13.6,11.1-24.7,24.7-24.6
		c13.6,0,24.6,11,24.7,24.6C232.9,368.6,232.9,368.7,232.9,368.7L232.9,368.7z"/>
	<path class="st3" d="M208.3,379.9c-6.2,0-11.2-5-11.2-11.1c0-6.2,5-11.2,11.1-11.2c6.2,0,11.2,5,11.2,11.1c0,0,0,0,0,0
		C219.4,374.9,214.4,379.8,208.3,379.9z"/>
	<path class="st2" d="M353,368.7c0,13.6-11.1,24.7-24.7,24.6c-13.6,0-24.7-11.1-24.6-24.7c0-13.6,11.1-24.7,24.7-24.6
		c13.6,0,24.6,11,24.7,24.6C353,368.6,353,368.7,353,368.7z"/>
	<path class="st3" d="M328.3,379.9c-6.2,0-11.2-5-11.2-11.1c0-6.2,5-11.2,11.1-11.2c6.2,0,11.2,5,11.2,11.1c0,0,0,0,0,0
		C339.4,374.9,334.5,379.8,328.3,379.9z"/>
	<path class="st1" d="M378,333.9H173.5c-11.3,0.2-20.6-8.9-20.7-20.2c-0.2-11.3,8.9-20.6,20.2-20.7c0.2,0,0.4,0,0.6,0h2.8
		l-27.2-158.7h-38.8c-3.4-0.1-6-2.9-6-6.3c0.1-3.3,2.7-5.9,6-6h44c3,0,5.5,2.1,6,5.1l29.3,170.9c0.6,3.3-1.7,6.5-5,7.1
		c-0.3,0.1-0.7,0.1-1,0.1h-10c-4.5-0.2-8.4,3.3-8.6,7.8c-0.2,4.5,3.3,8.4,7.8,8.6c0.2,0,0.5,0,0.7,0H378c3.4,0.1,6,2.9,6,6.3
		C383.9,331.2,381.3,333.8,378,333.9L378,333.9z"/>
	<path class="st4" d="M129.2,119.5v16.8c0,0.5-0.4,0.9-0.9,0.9c0,0,0,0,0,0h-31c-5.1,0-9.3-4.2-9.3-9.3c0,0,0,0,0,0
		c0-5.1,4.2-9.3,9.3-9.3c0,0,0,0,0,0h31C128.8,118.6,129.2,119,129.2,119.5L129.2,119.5z"/>
</g>
</svg>
