<?xml version="1.0" encoding="utf-8"?>
<!-- Generator: Adobe Illustrator 23.0.0, SVG Export Plug-In . SVG Version: 6.00 Build 0)  -->
<svg version="1.1" id="Layer_1" xmlns="http://www.w3.org/2000/svg" xmlns:xlink="http://www.w3.org/1999/xlink" x="0px" y="0px"
	 viewBox="0 0 512 512" style="enable-background:new 0 0 512 512;" xml:space="preserve">
<style type="text/css">
	.st0{fill:#F55D5C;}
	.st1{fill:#F6C863;}
	.st2{fill:#EAB54E;}
	.st3{fill:#EEEFEE;}
	.st4{fill:#414451;}
	.st5{fill:#DBD8DD;}
	.st6{fill:#9A9EAF;}
	.st7{fill:#575B6D;}
</style>
<g id="Circle_Grid">
	<circle class="st0" cx="256" cy="256" r="256"/>
</g>
<g id="icon">
	<path class="st1" d="M102.3,306.4l42.2-138.3c0.5-1.8,2.4-2.8,4.2-2.2L287,208.1c1.8,0.5,2.8,2.4,2.2,4.2L247,350.6
		c-0.5,1.8-2.4,2.8-4.2,2.2l-138.3-42.2C102.7,310.1,101.7,308.2,102.3,306.4z"/>
	<path class="st2" d="M204.3,183l-10.4,34.1l6.8-2.3l-1.5,13.6l8.9-10.5l4.3,19.1l4.7-15.5l6.4,12l12.5-41L204.3,183z"/>
	<path class="st3" d="M263.6,379.4c4.8,0,9-3.2,10.3-7.8l73.6-251.7l37.7,10.2c5.7,1.6,11.7-1.8,13.2-7.6c1.6-5.7-1.8-11.7-7.6-13.2
		l0,0l-47.9-13c-5.7-1.5-11.5,1.7-13.2,7.4l-73.5,251.4L98.2,307c-5.7-1.6-11.7,1.7-13.3,7.4c-1.6,5.6,1.5,11.4,7,13.2L260.5,379
		C261.5,379.3,262.5,379.4,263.6,379.4L263.6,379.4z"/>
	<path class="st4" d="M213.7,368.7c0,26.1,21.2,47.3,47.3,47.3s47.3-21.2,47.3-47.3c0-26.1-21.2-47.3-47.3-47.3c0,0,0,0,0,0
		C234.9,321.3,213.7,342.5,213.7,368.7L213.7,368.7z"/>
	<path class="st5" d="M261,392.7c13.3,0,24-10.8,24-24s-10.8-24-24-24c-13.2,0-24,10.8-24,24C237,381.9,247.8,392.7,261,392.7z"/>
	<path class="st6" d="M261,378.9c5.6,0,10.2-4.6,10.2-10.2c0-5.6-4.6-10.2-10.2-10.2c-5.6,0-10.2,4.6-10.2,10.2
		C250.8,374.3,255.4,378.9,261,378.9z"/>
	<path class="st7" d="M368.8,125.5c-0.2,0.8,0.2,1.6,1,1.8l42.6,12.1c6.4,1.8,13-1.9,14.8-8.3c0,0,0,0,0,0c1.8-6.4-1.9-13-8.3-14.8
		c0,0,0,0,0,0l-42.6-12.1c-0.8-0.2-1.6,0.2-1.8,1c0,0,0,0,0,0L368.8,125.5z"/>
	<path class="st2" d="M170.7,314.2l-49.3-15.4l9.9-31.8l49.3,15.4L170.7,314.2z"/>
	<g>
		<path class="st1" d="M170.2,288.7l-33.8-10.6c-0.9-0.3-1.4-1.3-1.1-2.2v0c0.3-0.9,1.3-1.4,2.2-1.1l33.8,10.6
			c0.9,0.3,1.4,1.3,1.1,2.2v0C172.1,288.5,171.1,289,170.2,288.7z"/>
		<path class="st1" d="M167.4,297.6L133.6,287c-0.9-0.3-1.4-1.3-1.1-2.2l0,0c0.3-0.9,1.3-1.4,2.2-1.1l33.8,10.6
			c0.9,0.3,1.4,1.3,1.1,2.2v0C169.3,297.3,168.3,297.8,167.4,297.6z"/>
		<path class="st1" d="M164.6,306.6L130.8,296c-0.9-0.3-1.4-1.3-1.1-2.2l0,0c0.3-0.9,1.3-1.4,2.2-1.1l33.8,10.6
			c0.9,0.3,1.4,1.3,1.1,2.2v0C166.5,306.3,165.5,306.9,164.6,306.6z"/>
	</g>
</g>
</svg>
