<svg id="icon" height="512" viewBox="0 0 128 128" width="512" xmlns="http://www.w3.org/2000/svg"><rect fill="#f6c863" height="37.806" rx=".84" transform="matrix(.292 -.957 .957 .292 -27.389 92.691)" width="37.806" x="29.98" y="45.934"/><path d="m51.083 45.746-2.602 8.534 1.7-.576-.367 3.407 2.223-2.625 1.073 4.78 1.178-3.866 1.603 3.01 3.124-10.247z" fill="#eab54e"/><path d="m65.9 94.862a2.694 2.694 0 0 0 2.585-1.938l18.4-62.937 9.415 2.561a2.693 2.693 0 0 0 1.415-5.2l-11.963-3.248a2.692 2.692 0 0 0 -3.293 1.844l-18.377 62.856-39.529-12.047a2.694 2.694 0 0 0 -1.571 5.153l42.136 12.839a2.674 2.674 0 0 0 .782.117z" fill="#eeefee"/><path d="m53.421 92.167a11.833 11.833 0 1 0 11.833-11.832 11.833 11.833 0 0 0 -11.833 11.832z" fill="#414451"/><path d="m65.254 98.172a6 6 0 1 0 -6.005-6 6.011 6.011 0 0 0 6.005 6z" fill="#dbd8dd"/><path d="m65.254 94.715a2.548 2.548 0 1 0 -2.549-2.548 2.551 2.551 0 0 0 2.549 2.548z" fill="#9a9eaf"/><path d="m92.2 31.372a.368.368 0 0 0 .254.454l10.646 3.029a3 3 0 0 0 3.708-2.07 3 3 0 0 0 -2.071-3.708l-10.65-3.029a.368.368 0 0 0 -.455.253z" fill="#575b6d"/><path d="m31.31 68.44h12.919v8.335h-12.919z" fill="#eab54e" transform="matrix(-.954 -.298 .298 -.954 52.156 153.177)"/><g fill="#f6c863"><rect height=".87" rx=".435" transform="matrix(-.954 -.298 .298 -.954 54.166 149.064)" width="9.726" x="33.597" y="69.963"/><rect height=".87" rx=".435" transform="matrix(-.954 -.298 .298 -.954 52.156 153.177)" width="9.726" x="32.907" y="72.173"/><rect height=".87" rx=".435" transform="matrix(-.954 -.298 .298 -.954 50.107 157.371)" width="9.726" x="32.202" y="74.426"/></g></svg>