<svg id="icon" height="512" viewBox="0 0 128 128" width="512" xmlns="http://www.w3.org/2000/svg"><circle cx="64" cy="64" fill="#f6c863" r="41"/><g fill="#eab54e"><path d="m64 97.87a33.87 33.87 0 1 1 33.87-33.87 33.908 33.908 0 0 1 -33.87 33.87zm0-64.12a30.25 30.25 0 1 0 30.25 30.25 30.284 30.284 0 0 0 -30.25-30.25z"/><path d="m65.335 61.661q5.658 1.164 7.689 3.388a8.644 8.644 0 0 1 2.031 6.058 10.226 10.226 0 0 1 -2.578 6.947 9.739 9.739 0 0 1 -7.142 3.206v3.54h-2.442v-3.494q-9.309-1.028-9.948-10.016h4.427q.5 5.7 5.521 6.548v-12.754q-9.24-1.848-9.241-9.013a8.724 8.724 0 0 1 2.5-6.5 10.629 10.629 0 0 1 6.742-2.852v-3.519h2.442v3.513q8.123.617 8.921 8.283h-4.45q-.364-4.245-4.471-4.815zm-2.442-.5v-11.022q-4.814.844-4.814 5.589a4.689 4.689 0 0 0 1.335 3.72 8.339 8.339 0 0 0 3.479 1.711zm2.442 16.679q5.271-.661 5.269-6.457a5.525 5.525 0 0 0 -1.072-3.651 8.23 8.23 0 0 0 -4.2-2.1z"/></g></svg>