<?xml version="1.0" encoding="utf-8"?>
<!-- Generator: Adobe Illustrator 23.0.0, SVG Export Plug-In . SVG Version: 6.00 Build 0)  -->
<svg version="1.1" id="Layer_1" xmlns="http://www.w3.org/2000/svg" xmlns:xlink="http://www.w3.org/1999/xlink" x="0px" y="0px"
	 viewBox="0 0 512 512" style="enable-background:new 0 0 512 512;" xml:space="preserve">
<style type="text/css">
	.st0{fill:#F55D5C;}
	.st1{fill:#F6C863;}
	.st2{fill:#EAB54E;}
</style>
<g id="Circle_Grid">
	<circle class="st0" cx="256" cy="256" r="256"/>
</g>
<g id="icon">
	<circle class="st1" cx="256" cy="256" r="164"/>
	<g>
		<path class="st2" d="M256,391.5c-74.8,0-135.5-60.7-135.5-135.5c0-74.8,60.7-135.5,135.5-135.5c74.8,0,135.5,60.7,135.5,135.5l0,0
			C391.4,330.8,330.8,391.4,256,391.5L256,391.5z M256,135c-66.8,0-121,54.2-121,121s54.2,121,121,121s121-54.2,121-121
			C376.9,189.2,322.8,135.1,256,135z"/>
		<path class="st2" d="M261.3,246.6c15.1,3.1,25.3,7.6,30.8,13.6c5.7,6.7,8.6,15.4,8.1,24.2c0.2,10.2-3.5,20.1-10.3,27.8
			c-7.3,8.1-17.7,12.7-28.6,12.8v14.2h-9.8v-14c-24.8-2.7-38.1-16.1-39.8-40.1h17.7c1.3,15.2,8.7,23.9,22.1,26.2v-51
			c-24.6-4.9-37-16.9-37-36.1c-0.4-9.7,3.2-19.1,10-26c7.4-6.9,16.9-10.9,27-11.4v-14.1h9.8v14.1c21.7,1.6,33.6,12.7,35.7,33.1
			h-17.8c-1-11.3-6.9-17.7-17.9-19.3L261.3,246.6z M251.6,244.6v-44.1c-12.8,2.3-19.3,9.7-19.3,22.4c-0.5,5.5,1.5,10.9,5.3,14.9
			C241.7,241.1,246.5,243.5,251.6,244.6L251.6,244.6z M261.3,311.4c14.1-1.8,21.1-10.4,21.1-25.8c0.3-5.2-1.2-10.4-4.3-14.6
			c-4.7-4.4-10.5-7.3-16.8-8.4L261.3,311.4z"/>
	</g>
</g>
</svg>
