<svg id="icon" height="512" viewBox="0 0 128 128" width="512" xmlns="http://www.w3.org/2000/svg"><rect fill="#575b6d" height="82" rx="2.929" width="51.722" x="38.139" y="23"/><path d="m38.139 30.81h51.722v62.232h-51.722z" fill="#69b0ee"/><circle cx="64" cy="99.021" fill="#828a9e" r="3.108"/><rect fill="#828a9e" height="1.952" rx=".976" width="9.274" x="59.363" y="25.929"/><path d="m64 80.239a15.661 15.661 0 1 1 15.379-15.658 15.538 15.538 0 0 1 -15.379 15.658zm0-28.085a12.431 12.431 0 1 0 12.149 12.427 12.3 12.3 0 0 0 -12.149-12.427z" fill="#eeefee"/><path d="m65.633 68.826a1.611 1.611 0 0 1 -1.142-.473l-4.811-4.811a1.615 1.615 0 0 1 2.285-2.284l3.668 3.668 16.2-16.2a1.615 1.615 0 1 1 2.284 2.284l-17.342 17.343a1.611 1.611 0 0 1 -1.142.473z" fill="#ef5261"/></svg>