<?xml version="1.0" encoding="utf-8"?>
<!-- Generator: Adobe Illustrator 23.0.0, SVG Export Plug-In . SVG Version: 6.00 Build 0)  -->
<svg version="1.1" id="Layer_1" xmlns="http://www.w3.org/2000/svg" xmlns:xlink="http://www.w3.org/1999/xlink" x="0px" y="0px"
	 viewBox="0 0 512 512" style="enable-background:new 0 0 512 512;" xml:space="preserve">
<style type="text/css">
	.st0{fill:#F55D5C;}
	.st1{fill:#575B6D;}
	.st2{fill:#69B0EE;}
	.st3{fill:#828A9E;}
	.st4{fill:#EEEFEE;}
	.st5{fill:#EF5261;}
</style>
<g id="Circle_Grid">
	<circle class="st0" cx="256" cy="256" r="256"/>
</g>
<g id="icon">
	<path class="st1" d="M164.3,92h183.5c6.5,0,11.7,5.2,11.7,11.7v304.6c0,6.5-5.2,11.7-11.7,11.7H164.3c-6.5,0-11.7-5.2-11.7-11.7
		V103.7C152.6,97.2,157.8,92,164.3,92z"/>
	<path class="st2" d="M152.6,123.2h206.9v248.9H152.6V123.2z"/>
	<circle class="st3" cx="256" cy="396.1" r="12.4"/>
	<path class="st3" d="M241.4,103.7h29.3c2.2,0,3.9,1.7,3.9,3.9l0,0c0,2.2-1.7,3.9-3.9,3.9h-29.3c-2.2,0-3.9-1.7-3.9-3.9l0,0
		C237.5,105.5,239.2,103.7,241.4,103.7z"/>
	<path class="st4" d="M256,321c-34.6,0.6-63.1-26.9-63.8-61.5s26.9-63.1,61.5-63.8s63.1,26.9,63.8,61.5c0,0.4,0,0.8,0,1.1
		C317.8,292.6,290.3,320.6,256,321z M256,208.6c-27.5-0.6-50.2,21.1-50.8,48.6s21.1,50.2,48.6,50.8c27.5,0.6,50.2-21.1,50.8-48.6
		c0-0.4,0-0.8,0-1.1C304.9,231.2,283.1,208.9,256,208.6z"/>
	<path class="st5" d="M262.5,275.3c-1.7,0-3.4-0.7-4.6-1.9l-19.2-19.2c-2.5-2.5-2.5-6.6,0-9.1s6.6-2.5,9.1,0l14.7,14.7l64.8-64.8
		c2.5-2.5,6.6-2.5,9.1,0c2.5,2.5,2.5,6.6,0,9.1l-69.4,69.4C265.9,274.6,264.2,275.3,262.5,275.3L262.5,275.3z"/>
</g>
</svg>
